<?xml version="1.0" encoding="UTF-8"?><svg xmlns="http://www.w3.org/2000/svg" viewBox="0 0 240 240"><defs><style>.cls-1{fill:#64be6a;}.cls-2{fill:#fff;}.cls-3{fill:#992b19;}.cls-4{isolation:isolate;}.cls-5{fill:#c23724;}.cls-6{fill:#b6e2ec;}.cls-7{fill:#55a4db;}.cls-8{fill:#f6c181;}.cls-9{fill:#e25c55;}.cls-10{fill:#d8d9da;}.cls-11{fill:#dcf2fd;}.cls-12{fill:#f09352;}.cls-13{fill:#c9e9ea;}.cls-14{fill:none;}.cls-15{fill:#353f61;}.cls-16{fill:#e5412c;}.cls-17{fill:#c93926;}.cls-18{mix-blend-mode:multiply;}.cls-19{fill:#1f2642;}.cls-20{fill:#e3746b;}</style></defs><g class="cls-4"><g id="AeroSanta"><g><g id="Lines"><g><path class="cls-6" d="M199.44,65.51h-24.79c-.11,0-.2-.1-.2-.21s.09-.21,.2-.21h24.79c.11,0,.2,.1,.2,.21s-.09,.21-.2,.21Z"/><path class="cls-6" d="M195.97,68.24h-11.01c-.11,0-.2-.1-.2-.21s.09-.21,.2-.21h11.01c.11,0,.2,.1,.2,.21s-.09,.21-.2,.21Z"/><path class="cls-6" d="M204.4,68.24h-7.19c-.11,0-.2-.1-.2-.21s.09-.21,.2-.21h7.19c.11,0,.2,.1,.2,.21s-.09,.21-.2,.21Z"/><path class="cls-6" d="M190.47,78.88h-13.83c-.11,0-.2-.1-.2-.21s.09-.21,.2-.21h13.83c.11,0,.2,.1,.2,.21s-.09,.21-.2,.21Z"/><path class="cls-6" d="M197.21,78.88h-3.72c-.11,0-.2-.1-.2-.21s.09-.21,.2-.21h3.72c.11,0,.2,.1,.2,.21s-.09,.21-.2,.21Z"/><path class="cls-6" d="M202.71,78.88h-1.91c-.11,0-.2-.1-.2-.21s.09-.21,.2-.21h1.91c.11,0,.2,.1,.2,.21s-.09,.21-.2,.21Z"/><path class="cls-6" d="M182.09,82.35h-11.5c-.11,0-.2-.1-.2-.21s.09-.21,.2-.21h11.5c.11,0,.2,.1,.2,.21s-.09,.21-.2,.21Z"/><path class="cls-6" d="M188.04,82.35h-2.18c-.11,0-.2-.1-.2-.21s.09-.21,.2-.21h2.18c.11,0,.2,.1,.2,.21s-.09,.21-.2,.21Z"/></g><g><path class="cls-6" d="M189.65,116.75h-9.31c-.1,0-.18-.08-.18-.19s.08-.19,.18-.19h9.31c.1,0,.18,.08,.18,.19s-.08,.19-.18,.19Z"/><path class="cls-6" d="M196.94,116.75h-5.05c-.1,0-.18-.08-.18-.19s.08-.19,.18-.19h5.05c.1,0,.18,.08,.18,.19s-.08,.19-.18,.19Z"/><path class="cls-6" d="M201.09,121.64h-10.88c-.1,0-.18-.08-.18-.19s.08-.19,.18-.19h10.88c.1,0,.18,.08,.18,.19s-.08,.19-.18,.19Z"/><path class="cls-6" d="M209.66,123.54h-10.01c-.1,0-.18-.08-.18-.19s.08-.19,.18-.19h10.01c.1,0,.18,.08,.18,.19s-.08,.19-.18,.19Z"/></g><g><path class="cls-6" d="M183.82,154.45h-14.57c-.1,0-.18-.08-.18-.19s.08-.19,.18-.19h14.57c.1,0,.18,.08,.18,.19s-.08,.19-.18,.19Z"/><path class="cls-6" d="M181.52,156.86h-7.53c-.1,0-.18-.08-.18-.19s.08-.19,.18-.19h7.53c.1,0,.18,.08,.18,.19s-.08,.19-.18,.19Z"/><path class="cls-6" d="M188.8,154.45h-2.86c-.1,0-.18-.08-.18-.19s.08-.19,.18-.19h2.86c.1,0,.18,.08,.18,.19s-.08,.19-.18,.19Z"/><path class="cls-6" d="M175.71,161.85h-6.45c-.1,0-.18-.08-.18-.19s.08-.19,.18-.19h6.45c.1,0,.18,.08,.18,.19s-.08,.19-.18,.19Z"/><path class="cls-6" d="M181.89,161.85h-3.32c-.1,0-.18-.08-.18-.19s.08-.19,.18-.19h3.32c.1,0,.18,.08,.18,.19s-.08,.19-.18,.19Z"/><path class="cls-6" d="M83.68,109.78h-14.57c-.1,0-.18-.08-.18-.19s.08-.19,.18-.19h14.57c.1,0,.18,.08,.18,.19s-.08,.19-.18,.19Z"/><path class="cls-6" d="M88.66,109.78h-2.86c-.1,0-.18-.08-.18-.19s.08-.19,.18-.19h2.86c.1,0,.18,.08,.18,.19s-.08,.19-.18,.19Z"/><path class="cls-6" d="M75.56,117.17h-6.45c-.1,0-.18-.08-.18-.19s.08-.19,.18-.19h6.45c.1,0,.18,.08,.18,.19s-.08,.19-.18,.19Z"/><path class="cls-6" d="M84.24,167.05h-14.57c-.1,0-.18-.08-.18-.19s.08-.19,.18-.19h14.57c.1,0,.18,.08,.18,.19s-.08,.19-.18,.19Z"/><path class="cls-6" d="M89.22,167.05h-2.86c-.1,0-.18-.08-.18-.19s.08-.19,.18-.19h2.86c.1,0,.18,.08,.18,.19s-.08,.19-.18,.19Z"/><path class="cls-6" d="M76.12,172.08h-6.45c-.1,0-.18-.08-.18-.19s.08-.19,.18-.19h6.45c.1,0,.18,.08,.18,.19s-.08,.19-.18,.19Z"/><path class="cls-6" d="M82.3,172.08h-3.32c-.1,0-.18-.08-.18-.19s.08-.19,.18-.19h3.32c.1,0,.18,.08,.18,.19s-.08,.19-.18,.19Z"/><path class="cls-6" d="M187.37,159.34h-10.37c-.1,0-.18-.08-.18-.19s.08-.19,.18-.19h10.37c.1,0,.18,.08,.18,.19s-.08,.19-.18,.19Z"/></g><g><path class="cls-6" d="M165.99,181.02h-15.94c-.11,0-.2-.1-.2-.21s.09-.21,.2-.21h15.94c.11,0,.2,.1,.2,.21s-.09,.21-.2,.21Z"/><path class="cls-6" d="M159.9,185.88h-7.29c-.11,0-.2-.1-.2-.21s.09-.21,.2-.21h7.29c.11,0,.2,.1,.2,.21s-.09,.21-.2,.21Z"/><path class="cls-6" d="M173.15,181.02h-5.08c-.11,0-.2-.1-.2-.21s.09-.21,.2-.21h5.08c.11,0,.2,.1,.2,.21s-.09,.21-.2,.21Z"/><path class="cls-6" d="M148.51,189.53h-4.91c-.11,0-.2-.1-.2-.21s.09-.21,.2-.21h4.91c.11,0,.2,.1,.2,.21s-.09,.21-.2,.21Z"/><path class="cls-6" d="M165.99,189.53h-14.69c-.11,0-.2-.1-.2-.21s.09-.21,.2-.21h14.69c.11,0,.2,.1,.2,.21s-.09,.21-.2,.21Z"/><path class="cls-6" d="M187.95,181.02h-5.9c-.11,0-.2-.1-.2-.21s.09-.21,.2-.21h5.9c.11,0,.2,.1,.2,.21s-.09,.21-.2,.21Z"/><path class="cls-6" d="M182.25,185.88h-18.43c-.11,0-.2-.1-.2-.21s.09-.21,.2-.21h18.43c.11,0,.2,.1,.2,.21s-.09,.21-.2,.21Z"/></g></g><g><g><path class="cls-8" d="M139.51,101.44h-24.36l4.42-14.86c1.5-5.03,6.13-8.49,11.38-8.49h0c4.72,0,8.55,3.83,8.55,8.55v14.8Z"/><g><path class="cls-2" d="M161.7,114.97c.81-.45,1.62-.93,2.25-1.64,.63-.71,1.05-1.72,.89-2.69-.3-1.84-2.24-3.17-3.95-3.17-3.02,0-5.71,.07-8.9,.07,.71-.23,1.39-.51,1.9-1.1,.09-.1,.21-.3,.24-.58,.27-2.27-1.51-4.28-3.8-4.35-2.63-.08-6.82-.16-12.92-.16-.05-4.72-.11-5.4-.02-8-.51-.05-1.03-.04-1.54,.03,.08,1.56-1.89,4.48-5.32,4.59-4.19,.13-8.52-.25-12.68-1.3-1.09-.27-2.24-.33-3.31,.03-2.86,.93-5.21,3.79-5.49,7.07-.09,1.05,.04,2.2,.69,2.99,.65,.79,1.93,1,2.57,.2-.92,3.18-.02,6.79,1.92,9.36,1.94,2.57,4.74,4.92,7.79,4.92h31.51c4.43,0,7.12-1.43,8.86-2.35,.62-.33,1.25-.73,1.63-1.37,.37-.61,.44-1.48,.01-2.05-.53-.7-1.52-.63-2.34-.5Z"/><g><path class="cls-11" d="M154.17,105.55c-.51,.59-2.8,1.2-3.81,1.22-1.01-.06-.95,1.19,1.64,.77,1.11-.35,1.47-.63,1.9-1.1,.22-.24,.27-.54,.27-.89,0,0,0,0,0,0Z"/><path class="cls-11" d="M160.46,114.11c-1.19,.11-.44,1.2,1.24,.87,1.06-.55,1.7-1.04,2.25-1.64,.36-.39,.64-.89,.8-1.42-.12,.19-1.72,1.63-4.29,2.19Z"/><path class="cls-11" d="M162.81,118c-1.73,.92-4.45-2.35-8.87-2.35h-31.51c-3.06,0-5.83,2.35-7.78-.22-1.83-2.42-2.73-5.76-2.07-8.79,.04-.17-.13-.3-.28-.22-.68,.34-1.62,.09-2.14-.55-.65-.79-.78-1.94-.69-2.99,.06-.76,.24-1.5,.51-2.2-.5,.95-.83,1.99-.92,3.09-.09,1.05,.04,2.2,.69,2.99,.65,.79,1.93,1,2.57,.2-.92,3.18-.02,6.79,1.92,9.36,1.94,2.57,4.74,4.92,7.79,4.92h31.51c4.43,0,7.12-1.43,8.86-2.35,.62-.33,1.25-.73,1.63-1.37,.12-.2,.21-.44,.26-.68-.38,.51-.94,.86-1.49,1.15Z"/></g></g><g><ellipse class="cls-2" cx="161.11" cy="81.37" rx="2.4" ry="2.7" transform="translate(34.25 209.75) rotate(-72.14)"/><path class="cls-11" d="M158.84,81.55c-.22,.14-.27,.45-.15,.69,.32,.64,.91,1.17,1.69,1.42,1.08,.35,2.2,.05,2.86-.67,.24-.26,.06-.68-.29-.71-.61-.05-1.57,.26-2.21,.06-1.02-.33-1.46-1.07-1.9-.79Z"/></g><g><path class="cls-16" d="M142.78,88.16c.59-1.09,1.42-1.95,2.28-2.7,3.9-3.39,10.16-5.16,14.93-4.21,.26,.05,.51-.15,.51-.42h0c0-.12-.05-.23-.13-.31-1.81-1.76-3.88-3.08-6.08-3.88-.8-.29-1.61-.51-2.43-.7-5.69-1.34-11.57-1.43-17.29-.27l8.21,12.48Z"/><path class="cls-5" d="M139.65,83.4l3.13,4.76c.59-1.09,1.42-1.95,2.28-2.7,3.9-3.39,10.16-5.16,14.93-4.21,.14,.03,.26-.01,.36-.1-6.57-2.29-14.41-.43-20.7,2.24Z"/></g><g><path class="cls-2" d="M133.03,75.03c.22-.13,.48-.17,.72-.09,1.74,.56,7.87,3.48,10.53,12.5,.02,.07,.01,.15-.02,.21-.03,.06-.09,.1-.14,.13-.66,.41-2.05,1.18-2.92,1.69-.21,.13-.47,.05-.62-.17-4.34-6.67-9.54-9.94-12.25-10.42-.43-.08-.53-.73-.14-.97l4.83-2.89Z"/><path class="cls-11" d="M129.03,77.42l-.83,.5c-.39,.23-.3,.89,.14,.97,2.72,.48,7.91,3.75,12.25,10.42,.14,.22,.4,.3,.62,.17,.27-.16,.6-.35,.95-.55-4.57-6.96-9.95-10.62-13.12-11.5Z"/></g><g><path class="cls-2" d="M132.78,80.97c-7.4,2.63-10.08-.23-10.48-.64-.38-.39-.71-.94-.57-1.47,.14-.53,.99-.79,1.25-.3-.63-1.32-.65-2.92-.05-4.26,.47-1.06,1.32-1.93,2.35-2.46,.38-.19,.81,.12,.8,.55-.03,.75-.02,1.51,.05,2.26,.95-1.6,2.74-2.66,4.6-2.73,.44-.02,.93,.04,1.2,.38,.22,.27,.24,.66,.19,1.01-.13,.83-.59,1.57-1.01,2.29-1.07,1.82-.93,3.87-.19,4.24,.75,.37,1.86,1.13,1.86,1.13Z"/><path class="cls-11" d="M128.23,76.2c.07-.41-.31-.78-.71-.65,0,0,0,0-.01,0-1.03,.41-.82,1.64-1.44,2.05-1.06,.72-.78-1.29-1.64-1.03-.82,.41,.24,2.22-.62,3.08-.41,.41-1.28-.86-1.64-.21-.05,.15-.06,.32-.05,.49,.01,.14,.08,.28,.18,.38,0,0,0,0,0,0,.37,.38,2.68,2.85,8.87,1.15-2.34-.34-3.32-2.97-2.94-5.27Z"/></g><g><path class="cls-2" d="M146,93.19c-.18-.16-1.98-1.17-1.98-1.17,1.03-.11,1.65-.9,1.74-1.05,.25-.44,.05-1.07-.42-1.28-.32-.15-.7-.09-1.05-.16-1.02-.19-3.96-.68-4.68-1.66,0,0-1.52-2.42-3.87-4.47-.94,4.53,3.29,12,3.29,12,1.13,2.47,2.12,3.23,3.97,3.26,.29,0,.6-.03,.85-.18,.35-.22,.51-.66,.53-1.08,.01-.38-.09-.77-.28-1.1-.27-.47-.7-.81-1.07-1.2,.83,.15,1.71,.06,2.44-.37,.28-.16,.54-.37,.67-.66s.1-.67-.14-.88Z"/><path class="cls-11" d="M142.58,97.9c-.68-.36-1.15-1.04-1.25-1.81-.12-.98,.62-1.28,1.75-2.08,.51-.35,.07-.72-.62-1.03-4.98-.78-6.96-6.65-6.52-10.28-1.6,4.4,3.09,12.7,3.09,12.7,1.13,2.47,2.12,3.23,3.97,3.26,.29,0,.6-.03,.85-.18,.1-.06,.24-.17,.2-.26-.2-.36-1.01-.08-1.47-.33Z"/></g><g><path class="cls-3" d="M124.91,108.69c1.77,.59,7.45-.62,6.87-6.99-.07-.75-.38-1.51-.99-1.95-.78-.56-1.88-.5-2.72-.03-.83,.47-2.57,2.11-5.84,2.64-.58,.09-1.29,.37-1.6,1.09-.22,.51-.04,1.05,.16,1.57,.75,1.95,2.73,3.23,4.11,3.68Z"/><path class="cls-20" d="M124.95,106.6c-.36,.55-.65,1.14-.82,1.77,.27,.13,.53,.24,.78,.32,1.52,.5,5.92-.32,6.76-4.6-1.05-.47-2.16-.44-3.21-.13-1.45,.42-2.68,1.38-3.51,2.64Z"/><path class="cls-2" d="M124.18,102.81h0c-.39,.13-.82-.09-.94-.48l-.17-.52c-.13-.39,.09-.82,.48-.94h0c.39-.13,.82,.09,.94,.48l.17,.52c.13,.39-.09,.82-.48,.94Z"/><path class="cls-2" d="M126,102.22h0c-.39,.13-.82-.09-.94-.48l-.17-.52c-.13-.39,.09-.82,.48-.94h0c.39-.13,.82,.09,.94,.48l.17,.52c.13,.39-.09,.82-.48,.94Z"/></g><g><g><path class="cls-19" d="M132.65,89.83c0-.16-.13-.29-.29-.3-.53-.03-1.06-.06-1.57-.09l-4.28,3.55c.5,.67,1.3,1.16,2.49,1.26,2.73,.23,3.73-2.89,3.66-4.43Z"/><path class="cls-15" d="M126.3,89.3c-.17,0-.32,.07-.37,.22-.28,1.02-.2,2.44,.57,3.47l4.28-3.55c-1.48-.07-2.92-.1-4.48-.14Z"/><path d="M132.36,89.44c-1.63-.14-3.26-.18-4.89-.23-.98-.03-1.6-.26-1.76,.8-.22,1.49,.29,3.13,1.64,3.91,1.49,.86,3.37,.6,4.42-.78,.43-.56,1.84-3.4,.62-3.71-.12-.03-.17,.12-.08,.18,.44,.32,.09,1.39-.03,1.79-.19,.65-.5,1.28-.96,1.79-1.14,1.24-3.21,1.2-4.41,.05-.47-.46-.77-1.07-.9-1.7-.09-.42-.24-1.42,.01-1.81,.41-.64,2.68-.25,3.33-.23,1,.03,2.01,.08,3.01,.12,.12,0,.11-.17,0-.18Z"/><path d="M132.64,90.15c1.64,.67,3.54,1.09,5.27,1.43,.2,.04,.28-.25,.08-.3-1.73-.46-3.57-.96-5.35-1.19-.04,0-.04,.05,0,.06h0Z"/><path d="M132.65,89.83h.41c.23,0,.41,.18,.41,.41h0c0,.23-.18,.41-.41,.41h-.41v-.82h0Z"/></g><g><path class="cls-19" d="M123.06,89.13c0-.16-.13-.29-.29-.3-.53-.03-1.06-.06-1.57-.09l-4.28,3.55c.5,.67,1.3,1.16,2.49,1.26,2.73,.23,3.73-2.89,3.66-4.43Z"/><path class="cls-15" d="M116.71,88.59c-.17,0-.32,.07-.37,.22-.28,1.02-.2,2.44,.57,3.47l4.28-3.55c-1.48-.07-2.92-.1-4.48-.14Z"/><path d="M122.77,88.73c-1.63-.14-3.26-.18-4.89-.23-.98-.03-1.6-.26-1.76,.8-.22,1.49,.29,3.13,1.64,3.91,1.49,.86,3.37,.6,4.42-.78,.43-.56,1.84-3.4,.62-3.71-.12-.03-.17,.12-.08,.18,.44,.32,.09,1.39-.03,1.79-.19,.65-.5,1.28-.96,1.79-1.14,1.24-3.21,1.2-4.41,.05-.47-.46-.77-1.07-.9-1.7-.09-.42-.24-1.42,.01-1.81,.41-.64,2.68-.25,3.33-.23,1,.03,2.01,.08,3.01,.12,.12,0,.11-.17,0-.18Z"/><path d="M125.8,90.23c.14-.67-.9-1.06-1.42-1.08-.38-.02-1.54,.04-1.49,.64,0,.08,.06,.16,.15,.15,.41-.03,.78-.28,1.22-.3,.29,0,.54,.04,.79,.19,.24,.14,.38,.38,.65,.45,.04,0,.09-.01,.09-.05h0Z"/></g></g><g><rect class="cls-8" x="136.33" y="91.43" width="5.09" height="3.84" rx="1.04" ry="1.04"/><g><path class="cls-12" d="M137.4,93.92c.09-.19,.16-.4,.26-.59,.2-.4,.27-.46,.7-.53,.68-.11,1.36-.11,2.05-.17,.09,0,.09-.13,0-.13-.78-.07-1.68,0-2.44,.19-.5,.12-.51,.75-.65,1.19-.01,.05,.06,.08,.08,.03h0Z"/><path class="cls-12" d="M138.16,93.08c.21,.1,.43,.15,.65,.22,.24,.08,.46,.21,.71,.28,.05,.01,.09-.05,.05-.08-.17-.16-.41-.24-.62-.31-.24-.08-.5-.17-.76-.19-.04,0-.06,.06-.02,.08h0Z"/></g></g><g><path class="cls-11" d="M119.24,98.12c-.54,.61-.36,1.5,.04,2.15,.68,1.13,2.07,.82,2.32,.7,.84-.42,1.48-1.17,1.93-1.99,.22-.41,.4-.84,.54-1.28-1.24-.04-2.41-.29-3.56-.52-.45,.28-.9,.55-1.26,.94Z"/><path class="cls-12" d="M124.42,92.47c-.04-.4-.18-.97-.41-1.48-.51,1.64-1.06,3.25-1.94,4.65-.12,.22-.26,.43-.42,.62-.26,.34-.54,.67-.85,.98,1.05,.21,2.13,.42,3.26,.46,.52-1.65,.52-3.48,.36-5.22Z"/><path class="cls-20" d="M123.29,91.13c-.44,.97-.89,1.96-1.54,2.8-.66,.84-1.55,1.55-2.6,1.76-.8,.17-1.62,.19-2.36,.54-.82,.39-1.02,1.39-.9,2.23,.21,1.46,1.77,1.74,2.08,1.72,1.05-.06,2.03-.56,2.85-1.21,1.93-1.55,2.99-3.94,3.74-6.3,.16-.51,.26-1.31,.21-2.03-.04-.55-.75-.72-1.06-.27-.15,.22-.3,.48-.43,.77Z"/><path class="cls-9" d="M122.83,96.44c-.68,.89-2.17,1.75-3.29,1.92-.58,.09-1.16,.17-1.7,.42-.22,.1-.39,.25-.53,.43-.27,.35-.08,.86,.35,.94,.14,.03,.26,.04,.32,.03,1.05-.06,2.03-.56,2.85-1.21,1.22-.98,2.1-2.3,2.76-3.74-.23,.42-.47,.83-.76,1.2Z"/></g></g><g><path class="cls-16" d="M159.04,124.78c11,0,13.29,11.3,11.4,17.43-1.89,6.13-6.38,11.54-11.89,15.85-10.48,8.18-24.71,12.58-38.99,13.24-7.87,.36-15.99-.4-23.04-3.37-11.36-4.77-21.35-11.47-21.35-19.21v-19.74c0-3.73,1.15-5.8,2.61-7.74,4.49-5.97,13.46-7.63,22.03-7.63,0,0,14.39,23.3,22.23,25.03,7.84,1.72,21.41,2.26,25.72-.86,4.31-3.12,11.28-12.99,11.28-12.99"/><path class="cls-17" d="M161.43,141.21c3.89,.7,8.1,.25,12.42-.69,.75-.16,2.52-2.4,2.52-2.4,.42-.66,.3-1.67,.06-2.17-.11-.23-7.68-1.5-7.68-1.5l-7.62,5.25c.41,1.27-.03,1.46,.3,1.51Z"/><path class="cls-16" d="M161.43,140.22c3.89,.7,8.1,.25,12.42-.69,.75-.16,2.52-2.4,2.52-2.4,.42-.66,.09-1.56-.64-1.77-2.35-.66-7.01-.59-7.01-.59l-7.42,4.76c-.28,.18-.2,.63,.13,.69Z"/><path class="cls-7" d="M84.84,116.04c-2.84,1.18-5.3,2.85-7.06,5.19-1.46,1.94-2.61,4.01-2.61,7.74v19.74c0,4.85,3.93,9.29,9.66,13.11v-45.79Z"/><path class="cls-17" d="M100.52,162.53c-3.14-.64-6.08,1.39-8.07,3.6,1.29,.72,2.65,1.2,4.07,1.8,7.05,2.96,15.17,3.73,23.04,3.37,10.42-.48,20.8-2.95,29.73-7.43-1.54-.85-3.4-1.62-5.2-1.33-19.37,3.1-28.3,3.1-43.57,0Z"/><g><path class="cls-17" d="M98.22,113.63l1.72-.02c3.56,0,6.88,2.06,8.84,5.03l9.11,13.8c2.18,3.3,5.87,5.29,9.83,5.29h13.33c4.4,0,8.42-2.45,10.45-6.35l1.66-2.58c1.47-2.83,3.76-4.26,6.75-4l-3.86,8.5c-2.82,6.02-8.87,9.86-15.52,9.86h-14.25c-5.86,0-11.31-2.99-14.45-7.93l-13.62-21.62Z"/><path class="cls-2" d="M99.95,111.95h0c3.56,0,6.88,1.79,8.84,4.76l9.11,13.8c2.18,3.3,5.87,5.29,9.83,5.29h13.33c4.4,0,8.42-2.45,10.45-6.35l.51-.98c1.3-2.5,3.73-4.18,6.48-4.53,.49-.06,.85,.44,.64,.89l-3.07,6.55c-2.82,6.02-8.87,9.86-15.52,9.86h-14.25c-5.86,0-11.31-2.99-14.45-7.93l-12.69-19.91c-.4-.63,.05-1.45,.8-1.45Z"/><path class="cls-11" d="M158.99,124.11l-2.93,6.26c-2.82,6.02-8.87,9.86-15.52,9.86h-14.25c-5.86,0-11.31-2.99-14.45-7.93l-12.69-19.91c-.18,.29-.21,.68,0,1.01l12.69,19.91c3.15,4.94,8.6,7.93,14.45,7.93h14.25c6.65,0,12.69-3.84,15.52-9.86l3.07-6.55c.12-.26,.05-.55-.14-.72Z"/></g><g><path class="cls-17" d="M110.3,154.88c7.2,4.74,26.55,8.6,36.66,9.99,1.66,.23,8.11-.13,8.11-.13,1.64,0,2.69-.54,2.52-2.32l-10.24-12.2c-18.2,3.9-39.14-.83-39.14-.83-.08,.96-.71,3.64,2.09,5.49Z"/><path class="cls-16" d="M108.42,150.3c6.58,5.56,29.27,11.23,38.9,13.42,1.63,.37,7.43,.04,7.43,.04,1.51,.02,3.59-.45,2.6-1.8-2.67-3.64-7.48-11.38-8.97-13.01-.59-.64-1.45-.89-2.32-.86-16.72,.47-37.11,.73-37.11,.73-.74,.05-1.08,1.02-.53,1.49Z"/><g><path class="cls-5" d="M118.82,148.55c-1.05,.02-2.1,.03-3.15,.05-.14,0-.15,.23,0,.23,1.05-.01,2.1-.03,3.15-.04,.15,0,.15-.23,0-.23h0Z"/><path class="cls-5" d="M126.16,148.43c-1.58,.03-3.15,.02-4.73,.05-.15,0-.15,.23,0,.23,1.58-.02,3.15-.01,4.73-.03,.16,0,.16-.24,0-.24h0Z"/><path class="cls-5" d="M154.95,158.29c-1.67-2.33-3.15-4.78-4.73-7.16-.51-.77-1.02-1.57-1.65-2.26-.79-.87-1.8-1.01-2.93-.99-3.22,.06-6.43,.16-9.65,.23-1.4,.03-2.8,.06-4.2,.09-1.27,.03-2.63-.05-3.88,.18-.12,.02-.12,.23,0,.24,1.09,.16,2.27,.06,3.38,.04,1.33-.02,2.65-.06,3.98-.09,2.92-.07,5.84-.15,8.76-.23,1.52-.04,3.17-.35,4.32,.87,.72,.77,1.3,1.7,1.89,2.58,1.49,2.21,2.92,4.47,4.5,6.61,.08,.11,.28,0,.19-.11h0Z"/></g></g><path class="cls-16" d="M63.36,139.53c-2.13,9.26-1.47,19.06,1.93,28.73,.23,.66,1.07,.88,1.6,.41,1.77-1.58,1.85-3.96,1.62-6.14-.78-7.59-3.56-15.3-3.43-22.8,0-.43-.3-.8-.72-.87h0c-.46-.08-.9,.22-1,.67Z"/><path class="cls-17" d="M65.7,139.92h-2.03c-.91,0-1.64-.73-1.64-1.64h0c0-.91,.73-1.64,1.64-1.64h2.03c.91,0,1.64,.73,1.64,1.64h0c0,.91-.73,1.64-1.64,1.64Z"/><path class="cls-16" d="M65.15,137.03c3-9.02,3.27-18.83,.81-28.78-.17-.68-.98-.98-1.55-.56-1.91,1.41-2.22,3.77-2.2,5.96,.05,7.63,2.09,15.57,1.25,23.03-.05,.42,.22,.82,.63,.93h0c.45,.12,.91-.13,1.06-.57Z"/><path class="cls-1" d="M65.37,138.85c0,5.12,3.89,9.32,8.87,9.82v-19.64c-4.98,.5-8.87,4.7-8.87,9.82Z"/><path class="cls-1" d="M75.18,128.98c-.31,0-.63,.02-.93,.05v19.64c.31,.03,.62,.05,.93,.05v-19.74Z"/><g><path class="cls-7" d="M83.6,158.67c-.1,0-.18-.08-.18-.18v-4.41c0-.1,.08-.18,.18-.18s.18,.08,.18,.18v4.41c0,.1-.08,.18-.18,.18Z"/><path class="cls-7" d="M83.6,150.32c-.1,0-.18-.08-.18-.18v-8.01c0-.1,.08-.18,.18-.18s.18,.08,.18,.18v8.01c0,.1-.08,.18-.18,.18Z"/><path class="cls-7" d="M83.6,140.41c-.1,0-.18-.08-.18-.18v-22.63c0-.1,.08-.18,.18-.18s.18,.08,.18,.18v22.63c0,.1-.08,.18-.18,.18Z"/><path class="cls-7" d="M89.92,163.07c-.1,0-.18-.08-.18-.18v-47.24c0-.1,.08-.18,.18-.18s.18,.08,.18,.18v47.24c0,.1-.08,.18-.18,.18Z"/></g><g><path class="cls-7" d="M88.36,121.21c0,.49-.4,.89-.89,.89s-.89-.4-.89-.89,.4-.89,.89-.89,.89,.4,.89,.89Z"/><path class="cls-7" d="M88.36,116.54c0,.49-.4,.89-.89,.89s-.89-.4-.89-.89,.4-.89,.89-.89,.89,.4,.89,.89Z"/><path class="cls-7" d="M88.36,125.72c0,.49-.4,.89-.89,.89s-.89-.4-.89-.89,.4-.89,.89-.89,.89,.4,.89,.89Z"/><path class="cls-7" d="M88.36,130.12c0,.49-.4,.89-.89,.89s-.89-.4-.89-.89,.4-.89,.89-.89,.89,.4,.89,.89Z"/><path class="cls-7" d="M88.36,134.52c0,.49-.4,.89-.89,.89s-.89-.4-.89-.89,.4-.89,.89-.89,.89,.4,.89,.89Z"/><path class="cls-7" d="M88.36,138.93c0,.49-.4,.89-.89,.89s-.89-.4-.89-.89,.4-.89,.89-.89,.89,.4,.89,.89Z"/><path class="cls-7" d="M88.36,143.33c0,.49-.4,.89-.89,.89s-.89-.4-.89-.89,.4-.89,.89-.89,.89,.4,.89,.89Z"/><path class="cls-7" d="M88.36,147.74c0,.49-.4,.89-.89,.89s-.89-.4-.89-.89,.4-.89,.89-.89,.89,.4,.89,.89Z"/><path class="cls-7" d="M88.36,152.14c0,.49-.4,.89-.89,.89s-.89-.4-.89-.89,.4-.89,.89-.89,.89,.4,.89,.89Z"/><path class="cls-7" d="M88.36,156.54c0,.49-.4,.89-.89,.89s-.89-.4-.89-.89,.4-.89,.89-.89,.89,.4,.89,.89Z"/><path class="cls-7" d="M88.36,161.42c0,.49-.4,.89-.89,.89s-.89-.4-.89-.89,.4-.89,.89-.89,.89,.4,.89,.89Z"/></g></g><path class="cls-5" d="M148.53,131.39c-.71-4.2-2.62-8.12-5.02-11.65-2.4-3.52-5.28-6.68-8.16-9.82l-15.5,.27c-3.57,2.48-6.78,5.55-9.43,8.99,3.79,5.4,7.28,12.37,11.96,16.24,.85,.71,1.94,1.08,3.05,1.04,7.44-.26,13.42-.21,20.85-1.94,1.12-.26,2.02-1.15,2.24-2.28,.05-.27,.06-.55,0-.86Z"/><g><path class="cls-16" d="M129.9,108.12c24.86,1.93,23.89,19.33,19.55,25.1-5.2,6.91-14.57,5.48-14.57,5.48l-.24-4.55c1.17,.12,3.77-.65,4.66-1.42,4.06-3.51,.86-12.71-7.42-11.49l-1.98-13.12Z"/><g class="cls-18"><path class="cls-10" d="M135.11,137.54s10.25,.66,15.2-7.27c.62-1,1.14-2.27,1.47-3.72-.24,2.72-1.17,5.12-2.34,6.67-5.2,6.91-14.57,5.48-14.57,5.48l-.24-4.54,.47,3.38Z"/></g><g><g><path class="cls-1" d="M115.5,130.91c.43-.77,6.03-.7,9.08-.61,1.18,0,2.09,.03,2.09,.03-.38-1.31-.37-3.35,.53-4.38,.55-.62,1.03-1.07,1.83-1.28,.79-.2,1.13,.5,1.17,1.31,.14,2.63,.66,12.7,.66,12.7-4.27,2.06-8.32,.84-9.44-.66-.16-.21-.67-1.94-1.12-3.67-1.83,.17-4.29,.35-4.63,.14-.55-.35-.79-2.52-.19-3.58Z"/><path class="cls-1" d="M120.32,134.35l2.24-.22s-1.4,.4-1.52,1.16c-.09,.56-.09,1.35-.09,1.35l-.63-2.29Z"/></g><rect class="cls-2" x="130.77" y="132.87" width="3.99" height="7.32" rx="1.1" ry="1.1" transform="translate(272.41 266) rotate(177.03)"/><path class="cls-11" d="M133.78,138.85c.44-.02,.84,.22,1.03,.59-.15,.39-.52,.67-.96,.69l-1.79,.09c-.44,.02-.84-.22-1.03-.59,.15-.39,.52-.67,.96-.69l1.79-.09Z"/></g></g></g><g><path class="cls-13" d="M129.47,175.52c-.2-.11-.43-.13-.65-.11-.68,.07-1.31,.59-1.44,1.27-.13,.67,.3,1.43,.97,1.6,.41,.1,.85,0,1.24-.18,.26-.12,.51-.27,.7-.49,.18-.22,.29-.52,.23-.8-.03-.15-.1-.28-.18-.41"/><path class="cls-13" d="M57.13,150.94c-.41,.09-.96,.42-1.03,.83-.09,.49,.01,1.07,.43,1.34,.35,.23,.83,.17,1.16-.07,.33-.24,.53-.65,.6-1.05,.07-.38-.01-.85-.35-1.03-.24-.13-.54-.07-.8-.01Z"/><path class="cls-13" d="M103.76,138.45c-.18,0-.35,.12-.47,.25-.12,.14-.18,.33-.14,.51,.04,.2,.21,.37,.4,.44s.42,.06,.61-.01c.08-.03,.16-.07,.23-.13,.16-.15,.19-.42,.08-.61-.11-.19-.49-.45-.71-.45Z"/><path class="cls-13" d="M93.89,134.68c.14-.23,.11-.53,.03-.79-.09-.25-.28-.47-.54-.56-.29-.1-.62-.01-.86,.18-.24,.2-.38,.49-.43,.79-.02,.13-.03,.26,0,.38,.07,.32,.39,.55,.72,.56s.92-.29,1.09-.57Z"/><path class="cls-13" d="M95,104.58c-.37,.14-.57,.59-.48,.98,.08,.38,.46,.68,.85,.68,.37,0,.75-.3,.72-.67-.01-.25-.06-.65-.34-.85-.2-.15-.48-.24-.75-.14Z"/><path class="cls-13" d="M67.61,95.85c-.37-.03-.55,.48-1.03,.35-.19,1.63,.88,1.56,1.54,1.2,.35-.19,.69-.53,.61-.92-.09-.45-.66-.59-1.12-.63Z"/><path class="cls-13" d="M180.54,89.52c-.35,.11-.41,.33-.49,.72-.08,.36,.16,.85,.38,1.14,.36,.49,1.11,.48,1.68,.26,.39-.15,.77-.39,.97-.75s.2-.87-.1-1.16c-.17-.16-.4-.24-.62-.29-.6-.13-1.23-.11-1.82,.07Z"/><path class="cls-13" d="M170.79,90.97c-.3,.12-.51,.45-.53,.78-.01,.28,.18,.54,.43,.66,.25,.12,.54,.12,.81,.06,.33-.08,.67-.29,.72-.62,.05-.29-.15-.58-.41-.73-.26-.15-.71-.26-1.03-.14Z"/><path class="cls-13" d="M75.09,103.68c-.31,.52-.24,1.24,.19,1.67,.43,.43,1.12,.55,1.7,.35,.57-.2,1.04-.72,1.13-1.32,.09-.6-.2-1.26-.74-1.55-.54-.29-1.73-.07-2.27,.84Z"/><path class="cls-13" d="M67.78,118.82c-.24,.36-.14,.9,.2,1.17,.34,.27,.88,.23,1.18-.08,.3-.31,.33-.85,.05-1.19-.3-.36-1.1-.41-1.44,.09Z"/><path class="cls-13" d="M79.87,115.8c-.23-.03-.46,.02-.65,.14-.37,.25-.46,.82-.2,1.17,.26,.36,.83,.43,1.18,.16,.35-.27,.41-.84,.12-1.18s-.86-.38-1.19-.09"/><path class="cls-13" d="M106.55,135.38c-.31,.52-.24,1.23,.18,1.66,.42,.43,1.11,.55,1.68,.35,.57-.2,1.03-.72,1.12-1.31,.09-.6-.2-1.24-.73-1.53-.53-.29-1.71-.07-2.25,.84Z"/><path class="cls-13" d="M177.59,119.43c-.24,.36-.14,.9,.2,1.17,.34,.27,.88,.23,1.18-.08,.3-.31,.33-.85,.05-1.19-.3-.36-1.1-.41-1.44,.09Z"/><path class="cls-13" d="M164.21,97.12c-.09,.19-.13,.43,0,.59,.08,.1,.21,.16,.35,.18,.3,.05,.63-.08,.8-.33,.16-.26,.12-.64-.12-.83s-.89,.11-1.02,.38Z"/><path class="cls-13" d="M172.74,149.89c-.32-.04-.65,.02-.92,.2-.52,.35-.66,1.15-.29,1.66,.37,.51,1.18,.61,1.67,.23,.49-.39,.58-1.2,.17-1.68-.4-.48-1.21-.54-1.68-.13"/><path class="cls-13" d="M179.49,101.11c-.27-.24-.65-.35-1.01-.3-.36,.05-.69,.24-.97,.47-.63,.53-1.04,1.32-1.1,2.14-.02,.32,0,.64,.14,.93,.28,.61,1.01,.95,1.67,.87,.67-.08,1.26-.52,1.63-1.08,.43-.65,.59-2.19-.37-3.03Z"/><path class="cls-13" d="M165.19,115.49c-.41,.32-.44,.78-.37,1.01,.15,.49,.8,.91,1.31,.79,.24-.06,.43-.23,.58-.42,.2-.25,.36-.54,.37-.86,.02-.32-.13-.66-.42-.8-.15-.07-.32-.09-.49-.08-.35,.02-.7,.15-.98,.37Z"/><path class="cls-13" d="M182.14,164.58c-.48-.73-.88-.39-1.03-.28-.16,.11-.24,.29-.28,.48-.11,.45,.1,1.06,.57,1.09,.16,.01,.31-.04,.44-.13,.37-.24,.55-.79,.31-1.16Z"/></g><g><g><path class="cls-13" d="M168.68,58.95c.03,1.91-.08,3.91,.19,5.81,.01,.07,.11,.05,.12-.02,.15-1.9-.1-3.89-.2-5.79,0-.07-.11-.07-.11,0h0Z"/><path class="cls-13" d="M166.04,64.07c1.68-1.41,3.47-2.59,5.22-3.88,.06-.04,0-.14-.06-.1-1.92,.95-3.7,2.43-5.22,3.93-.04,.04,.02,.09,.06,.06h0Z"/><path class="cls-13" d="M166.54,59.82c1.54,1.57,3.19,3.36,5.06,4.54,.07,.05,.15-.06,.09-.12-1.53-1.63-3.41-3-5.06-4.52-.06-.06-.15,.03-.09,.09h0Z"/><path class="cls-13" d="M171.5,59.68c-.17,0-.33,.12-.37,.29-.04,.16,.04,.35,.18,.43,.07,.04,.15,.06,.22,.05,.04,0,.09,0,.13-.02,.13-.06,.19-.22,.22-.36,.01-.07,.03-.14,.01-.21s-.05-.14-.12-.17"/><path class="cls-13" d="M171.96,64.2c-.15-.06-.32-.04-.45,.04-.13,.09-.21,.25-.18,.4,0,.07,.04,.13,.07,.19,.07,.12,.16,.23,.29,.28,.2,.07,.42-.04,.54-.21,.07-.1,.11-.22,.09-.34-.02-.12-.1-.23-.21-.27"/><path class="cls-13" d="M169.05,64.78c-.13-.15-.39-.13-.53,.01-.14,.14-.16,.37-.1,.55,.03,.08,.07,.16,.14,.21,.12,.1,.29,.12,.45,.1,.11-.01,.22-.04,.31-.11,.17-.14,.19-.41,.11-.61-.04-.09-.11-.2-.21-.18"/><path class="cls-13" d="M165.91,63.82c-.08-.01-.13-.01-.22-.02-.1,0-.2,.07-.25,.15-.06,.09-.07,.21-.03,.31,.04,.1,.12,.18,.21,.24,.08,.05,.17,.08,.27,.07,.08-.01,.16-.06,.23-.11,.07-.05,.15-.12,.17-.21,0-.04,0-.09-.01-.13-.05-.16-.19-.29-.36-.32"/><path class="cls-13" d="M166.3,59.37s-.08,0-.11,.02c-.14,.09-.25,.22-.32,.37-.04,.1-.07,.21-.04,.32,.04,.19,.23,.32,.42,.33,.19,0,.38-.09,.49-.24,.1-.13,.16-.3,.12-.46-.04-.16-.19-.3-.35-.3"/><path class="cls-13" d="M168.33,58.57c-.08,.02-.13,.1-.15,.18-.02,.1-.02,.2,.04,.28,.1,.16,.31,.19,.5,.18,.1,0,.21,0,.31-.06,.15-.07,.23-.24,.22-.41-.02-.16-.13-.31-.29-.37-.15-.06-.33-.04-.47,.06"/></g><g><path class="cls-13" d="M166.11,121.66c.02,.94-.04,1.92,.09,2.85,0,.04,.06,.02,.06,0,.07-.93-.05-1.91-.1-2.84,0-.04-.06-.04-.06,0h0Z"/><path class="cls-13" d="M164.82,124.17c.82-.69,1.7-1.27,2.57-1.91,.03-.02,0-.07-.03-.05-.94,.47-1.82,1.2-2.56,1.93-.02,.02,0,.04,.03,.03h0Z"/><path class="cls-13" d="M165.06,122.09c.76,.77,1.57,1.65,2.48,2.23,.04,.02,.07-.03,.04-.06-.75-.8-1.67-1.47-2.48-2.22-.03-.03-.08,.02-.05,.05h0Z"/><path class="cls-13" d="M167.49,122.02c-.08,0-.16,.06-.18,.14-.02,.08,.02,.17,.09,.21,.03,.02,.07,.03,.11,.03,.02,0,.04,0,.06-.01,.07-.03,.09-.11,.11-.18,0-.03,.01-.07,0-.1,0-.03-.03-.07-.06-.08"/><path class="cls-13" d="M167.72,124.24c-.07-.03-.16-.02-.22,.02-.06,.04-.1,.12-.09,.2,0,.03,.02,.06,.03,.09,.03,.06,.08,.11,.14,.14,.1,.03,.21-.02,.27-.1,.03-.05,.05-.11,.04-.16,0-.06-.05-.11-.1-.13"/><path class="cls-13" d="M166.29,124.52c-.06-.07-.19-.06-.26,0-.07,.07-.08,.18-.05,.27,.01,.04,.03,.08,.07,.11,.06,.05,.14,.06,.22,.05,.05,0,.11-.02,.15-.05,.08-.07,.09-.2,.05-.3-.02-.05-.06-.1-.1-.09"/><path class="cls-13" d="M164.75,124.05s-.06,0-.11,0-.1,.04-.13,.08c-.03,.04-.03,.1-.01,.15,.02,.05,.06,.09,.1,.12,.04,.02,.09,.04,.13,.03,.04,0,.08-.03,.11-.05,.04-.03,.07-.06,.08-.1,0-.02,0-.04,0-.06-.03-.08-.09-.14-.18-.16"/><path class="cls-13" d="M164.94,121.87s-.04,0-.06,0c-.07,.04-.12,.11-.16,.18-.02,.05-.03,.1-.02,.16,.02,.09,.11,.16,.2,.16,.09,0,.18-.05,.24-.12,.05-.06,.08-.15,.06-.23-.02-.08-.09-.15-.17-.14"/><path class="cls-13" d="M165.94,121.48s-.06,.05-.07,.09c-.01,.05,0,.1,.02,.14,.05,.08,.15,.09,.24,.09,.05,0,.1,0,.15-.03,.07-.04,.11-.12,.11-.2,0-.08-.07-.15-.14-.18-.07-.03-.16-.02-.23,.03"/></g><g><path class="cls-13" d="M46.58,110.81c.02,1.21-.05,2.49,.12,3.69,0,.05,.07,.03,.08-.01,.09-1.21-.07-2.47-.13-3.68,0-.05-.07-.05-.07,0h0Z"/><path class="cls-13" d="M44.9,114.06c1.06-.9,2.2-1.65,3.32-2.47,.04-.03,0-.09-.04-.07-1.22,.6-2.35,1.55-3.32,2.5-.02,.02,.01,.06,.04,.04h0Z"/><path class="cls-13" d="M45.22,111.36c.98,1,2.03,2.14,3.22,2.89,.05,.03,.09-.04,.06-.07-.97-1.04-2.17-1.91-3.21-2.87-.04-.04-.1,.02-.06,.06h0Z"/><path class="cls-13" d="M48.37,111.27c-.11,0-.21,.08-.23,.18-.03,.1,.02,.22,.12,.27,.04,.02,.09,.04,.14,.03,.03,0,.06,0,.08-.02,.09-.04,.12-.14,.14-.23,0-.04,.02-.09,0-.13,0-.04-.03-.09-.08-.11"/><path class="cls-13" d="M48.66,114.14c-.09-.04-.2-.03-.29,.03-.08,.06-.13,.16-.12,.26,0,.04,.02,.08,.04,.12,.04,.08,.1,.15,.18,.18,.13,.04,.27-.02,.35-.13,.04-.06,.07-.14,.06-.21s-.06-.15-.13-.17"/><path class="cls-13" d="M46.81,114.51c-.08-.09-.25-.08-.34,0-.09,.09-.1,.23-.06,.35,.02,.05,.04,.1,.09,.14,.08,.07,.19,.07,.29,.06,.07,0,.14-.03,.2-.07,.11-.09,.12-.26,.07-.39-.02-.06-.07-.12-.13-.12"/><path class="cls-13" d="M44.82,113.9s-.08,0-.14-.01c-.06,0-.13,.05-.16,.1-.04,.06-.04,.14-.02,.2,.03,.06,.08,.12,.14,.15,.05,.03,.11,.05,.17,.04,.05,0,.1-.04,.15-.07,.05-.03,.1-.08,.11-.13,0-.03,0-.05,0-.08-.03-.1-.12-.18-.23-.2"/><path class="cls-13" d="M45.07,111.07s-.05,0-.07,.01c-.09,.06-.16,.14-.2,.24-.03,.06-.04,.13-.03,.2,.03,.12,.14,.2,.26,.21s.24-.06,.31-.15c.07-.08,.1-.19,.08-.29-.02-.1-.12-.19-.22-.19"/><path class="cls-13" d="M46.36,110.57s-.08,.06-.09,.11c-.02,.06-.01,.13,.02,.18,.06,.1,.2,.12,.32,.12,.07,0,.14,0,.19-.04,.09-.05,.15-.16,.14-.26-.01-.1-.08-.2-.18-.23s-.21-.02-.3,.04"/></g><g><path class="cls-13" d="M133.11,52.31c.03,1.77-.08,3.62,.18,5.37,0,.07,.11,.04,.11-.01,.14-1.76-.09-3.6-.18-5.35,0-.07-.11-.07-.1,0h0Z"/><path class="cls-13" d="M130.67,57.04c1.55-1.3,3.21-2.4,4.83-3.59,.06-.04,0-.13-.06-.09-1.78,.88-3.42,2.25-4.83,3.63-.03,.03,.02,.08,.05,.05h0Z"/><path class="cls-13" d="M131.13,53.11c1.42,1.45,2.95,3.11,4.68,4.2,.07,.04,.14-.05,.08-.11-1.41-1.51-3.15-2.78-4.68-4.18-.06-.05-.14,.03-.09,.09h0Z"/><path class="cls-13" d="M135.71,52.98c-.15,0-.3,.12-.34,.26-.04,.15,.03,.32,.17,.4,.06,.04,.14,.05,.21,.05,.04,0,.08,0,.12-.02,.12-.05,.18-.2,.2-.33,.01-.06,.02-.13,.01-.2-.01-.06-.05-.13-.11-.15"/><path class="cls-13" d="M136.14,57.16c-.13-.05-.3-.04-.41,.04-.12,.08-.19,.23-.17,.37,0,.06,.03,.12,.06,.18,.06,.11,.15,.22,.27,.26,.18,.06,.39-.04,.5-.2,.06-.09,.1-.2,.08-.31s-.09-.21-.19-.25"/><path class="cls-13" d="M133.45,57.7c-.12-.14-.36-.12-.49,.01-.13,.13-.15,.34-.09,.51,.03,.07,.07,.15,.13,.2,.11,.1,.27,.11,.42,.09,.1-.01,.21-.04,.29-.1,.16-.13,.17-.37,.1-.57-.03-.09-.1-.18-.2-.17"/><path class="cls-13" d="M130.55,56.81c-.07-.01-.12-.01-.21-.01s-.19,.07-.24,.14c-.06,.08-.06,.2-.02,.29,.04,.09,.11,.17,.2,.22,.07,.05,.16,.08,.25,.06,.08-.01,.15-.06,.21-.1,.07-.05,.14-.11,.15-.19,0-.04,0-.08-.01-.12-.05-.15-.18-.26-.33-.3"/><path class="cls-13" d="M130.91,52.7s-.07,0-.11,.02c-.13,.08-.23,.2-.29,.34-.04,.09-.06,.19-.04,.29,.04,.17,.21,.3,.38,.31,.18,0,.35-.09,.46-.23,.1-.12,.15-.28,.12-.43-.03-.15-.17-.28-.32-.27"/><path class="cls-13" d="M132.79,51.96c-.07,.02-.12,.09-.14,.17-.02,.09-.02,.19,.03,.26,.09,.15,.29,.17,.46,.17,.1,0,.2,0,.28-.05,.13-.07,.22-.23,.2-.38-.02-.15-.12-.29-.26-.34-.14-.06-.31-.03-.43,.05"/></g><g><path class="cls-13" d="M93.28,96.42c.02,1.21-.05,2.49,.12,3.69,0,.05,.07,.03,.08-.01,.09-1.21-.07-2.47-.13-3.68,0-.05-.07-.05-.07,0h0Z"/><path class="cls-13" d="M91.61,99.67c1.06-.9,2.2-1.65,3.32-2.47,.04-.03,0-.09-.04-.07-1.22,.6-2.35,1.55-3.32,2.5-.02,.02,.01,.06,.04,.04h0Z"/><path class="cls-13" d="M91.93,96.97c.98,1,2.03,2.14,3.22,2.89,.05,.03,.09-.04,.06-.07-.97-1.04-2.17-1.91-3.21-2.87-.04-.04-.1,.02-.06,.06h0Z"/><path class="cls-13" d="M95.07,96.88c-.11,0-.21,.08-.23,.18-.03,.1,.02,.22,.12,.27,.04,.02,.09,.04,.14,.03,.03,0,.06,0,.08-.02,.09-.04,.12-.14,.14-.23,0-.04,.02-.09,0-.13,0-.04-.03-.09-.08-.11"/><path class="cls-13" d="M95.37,99.75c-.09-.04-.2-.03-.29,.03-.08,.06-.13,.16-.12,.26,0,.04,.02,.08,.04,.12,.04,.08,.1,.15,.18,.18,.13,.04,.27-.02,.35-.13,.04-.06,.07-.14,.06-.21-.01-.07-.06-.15-.13-.17"/><path class="cls-13" d="M93.52,100.12c-.08-.09-.25-.08-.34,0-.09,.09-.1,.23-.06,.35,.02,.05,.04,.1,.09,.14,.08,.07,.19,.07,.29,.06,.07,0,.14-.03,.2-.07,.11-.09,.12-.26,.07-.39-.02-.06-.07-.12-.13-.12"/><path class="cls-13" d="M91.53,99.51s-.08,0-.14-.01c-.06,0-.13,.05-.16,.1-.04,.06-.04,.14-.02,.2s.08,.12,.14,.15c.05,.03,.11,.05,.17,.04,.05,0,.1-.04,.15-.07,.05-.03,.1-.08,.11-.13,0-.03,0-.05,0-.08-.03-.1-.12-.18-.23-.2"/><path class="cls-13" d="M91.77,96.68s-.05,0-.07,.01c-.09,.06-.16,.14-.2,.24-.03,.06-.04,.13-.03,.2,.03,.12,.14,.2,.26,.21,.12,0,.24-.06,.31-.15,.07-.08,.1-.19,.08-.29-.02-.1-.12-.19-.22-.19"/><path class="cls-13" d="M93.07,96.18s-.08,.06-.09,.11c-.02,.06-.01,.13,.02,.18,.06,.1,.2,.12,.32,.12,.07,0,.14,0,.19-.04,.09-.05,.15-.16,.14-.26-.01-.1-.08-.2-.18-.23-.1-.04-.21-.02-.3,.04"/></g></g></g><rect class="cls-14" width="240" height="240"/></g></g></svg>