<?xml version="1.0" encoding="UTF-8"?><svg xmlns="http://www.w3.org/2000/svg" viewBox="0 0 240 240"><defs><style>.cls-1{fill:#64be6a;}.cls-2{fill:#fff;}.cls-3{fill:#992b19;}.cls-4{isolation:isolate;}.cls-5{fill:#c23724;}.cls-6{fill:#b6e2ec;}.cls-7{fill:#4f74b9;}.cls-8{fill:#55a4db;}.cls-9{fill:#f6c181;}.cls-10{fill:#e25c55;}.cls-11{fill:#d8d9da;}.cls-12{fill:#dcf2fd;}.cls-13{fill:#f09352;}.cls-14{fill:#c9e9ea;}.cls-15{fill:none;}.cls-16{fill:#353f61;}.cls-17{fill:#e5412c;}.cls-18{fill:#c93926;}.cls-19{mix-blend-mode:multiply;}.cls-20{fill:#1f2642;}.cls-21{fill:#e3746b;}</style></defs><g class="cls-4"><g id="Blob_Splash"><g><path class="cls-7" d="M57.9,95.53c18.36-8.22,35.32-9.43,51.3-27.08,7.27-8.03,6.31-11.81,13.21-15.21,15.57-7.67,42.22,.83,57.52,12.92,14.44,11.4,23.38,29.64,18.91,45.94-4.37,15.96-18.21,17.69-19.82,32.92-1.8,17.01,14.56,23.53,9.98,32.81-6.66,13.47-47.9,13.44-73.84,9.79-23.19-3.26-70.86,.82-74.23-33.44-2.16-21.95-1.98-50.17,16.97-58.64Z"/><g><path class="cls-9" d="M139.51,101.44h-24.36l4.42-14.86c1.5-5.03,6.13-8.49,11.38-8.49h0c4.72,0,8.55,3.83,8.55,8.55v14.8Z"/><g><path class="cls-2" d="M161.7,114.97c.81-.45,1.62-.93,2.25-1.64,.63-.71,1.05-1.72,.89-2.69-.3-1.84-2.24-3.17-3.95-3.17-3.02,0-5.71,.07-8.9,.07,.71-.23,1.39-.51,1.9-1.1,.09-.1,.21-.3,.24-.58,.27-2.27-1.51-4.28-3.8-4.35-2.63-.08-6.82-.16-12.92-.16-.05-4.72-.11-5.4-.02-8-.51-.05-1.03-.04-1.54,.03,.08,1.56-1.89,4.48-5.32,4.59-4.19,.13-8.52-.25-12.68-1.3-1.09-.27-2.24-.33-3.31,.03-2.86,.93-5.21,3.79-5.49,7.07-.09,1.05,.04,2.2,.69,2.99,.65,.79,1.93,1,2.57,.2-.92,3.18-.02,6.79,1.92,9.36,1.94,2.57,4.74,4.92,7.79,4.92h31.51c4.43,0,7.12-1.43,8.86-2.35,.62-.33,1.25-.73,1.63-1.37,.37-.61,.44-1.48,.01-2.05-.53-.7-1.52-.63-2.34-.5Z"/><g><path class="cls-12" d="M154.17,105.55c-.51,.59-2.8,1.2-3.81,1.22-1.01-.06-.95,1.19,1.64,.77,1.11-.35,1.47-.63,1.9-1.1,.22-.24,.27-.54,.27-.89,0,0,0,0,0,0Z"/><path class="cls-12" d="M160.46,114.11c-1.19,.11-.44,1.2,1.24,.87,1.06-.55,1.7-1.04,2.25-1.64,.36-.39,.64-.89,.8-1.42-.12,.19-1.72,1.63-4.29,2.19Z"/><path class="cls-12" d="M162.81,118c-1.73,.92-4.45-2.35-8.87-2.35h-31.51c-3.06,0-5.83,2.35-7.78-.22-1.83-2.42-2.73-5.76-2.07-8.79,.04-.17-.13-.3-.28-.22-.68,.34-1.62,.09-2.14-.55-.65-.79-.78-1.94-.69-2.99,.06-.76,.24-1.5,.51-2.2-.5,.95-.83,1.99-.92,3.09-.09,1.05,.04,2.2,.69,2.99,.65,.79,1.93,1,2.57,.2-.92,3.18-.02,6.79,1.92,9.36,1.94,2.57,4.74,4.92,7.79,4.92h31.51c4.43,0,7.12-1.43,8.86-2.35,.62-.33,1.25-.73,1.63-1.37,.12-.2,.21-.44,.26-.68-.38,.51-.94,.86-1.49,1.15Z"/></g></g><g><ellipse class="cls-2" cx="161.11" cy="81.37" rx="2.4" ry="2.7" transform="translate(34.25 209.75) rotate(-72.14)"/><path class="cls-12" d="M158.84,81.55c-.22,.14-.27,.45-.15,.69,.32,.64,.91,1.17,1.69,1.42,1.08,.35,2.2,.05,2.86-.67,.24-.26,.06-.68-.29-.71-.61-.05-1.57,.26-2.21,.06-1.02-.33-1.46-1.07-1.9-.79Z"/></g><g><path class="cls-17" d="M142.78,88.16c.59-1.09,1.42-1.95,2.28-2.7,3.9-3.39,10.16-5.16,14.93-4.21,.26,.05,.51-.15,.51-.42h0c0-.12-.05-.23-.13-.31-1.81-1.76-3.88-3.08-6.08-3.88-.8-.29-1.61-.51-2.43-.7-5.69-1.34-11.57-1.43-17.29-.27l8.21,12.48Z"/><path class="cls-5" d="M139.65,83.4l3.13,4.76c.59-1.09,1.42-1.95,2.28-2.7,3.9-3.39,10.16-5.16,14.93-4.21,.14,.03,.26-.01,.36-.1-6.57-2.29-14.41-.43-20.7,2.24Z"/></g><g><path class="cls-2" d="M133.03,75.03c.22-.13,.48-.17,.72-.09,1.74,.56,7.87,3.48,10.53,12.5,.02,.07,.01,.15-.02,.21-.03,.06-.09,.1-.14,.13-.66,.41-2.05,1.18-2.92,1.69-.21,.13-.47,.05-.62-.17-4.34-6.67-9.54-9.94-12.25-10.42-.43-.08-.53-.73-.14-.97l4.83-2.89Z"/><path class="cls-12" d="M129.03,77.42l-.83,.5c-.39,.23-.3,.89,.14,.97,2.72,.48,7.91,3.75,12.25,10.42,.14,.22,.4,.3,.62,.17,.27-.16,.6-.35,.95-.55-4.57-6.96-9.95-10.62-13.12-11.5Z"/></g><g><path class="cls-2" d="M132.78,80.97c-7.4,2.63-10.08-.23-10.48-.64-.38-.39-.71-.94-.57-1.47,.14-.53,.99-.79,1.25-.3-.63-1.32-.65-2.92-.05-4.26,.47-1.06,1.32-1.93,2.35-2.46,.38-.19,.81,.12,.8,.55-.03,.75-.02,1.51,.05,2.26,.95-1.6,2.74-2.66,4.6-2.73,.44-.02,.93,.04,1.2,.38,.22,.27,.24,.66,.19,1.01-.13,.83-.59,1.57-1.01,2.29-1.07,1.82-.93,3.87-.19,4.24,.75,.37,1.86,1.13,1.86,1.13Z"/><path class="cls-12" d="M128.23,76.2c.07-.41-.31-.78-.71-.65,0,0,0,0-.01,0-1.03,.41-.82,1.64-1.44,2.05-1.06,.72-.78-1.29-1.64-1.03-.82,.41,.24,2.22-.62,3.08-.41,.41-1.28-.86-1.64-.21-.05,.15-.06,.32-.05,.49,.01,.14,.08,.28,.18,.38,0,0,0,0,0,0,.37,.38,2.68,2.85,8.87,1.15-2.34-.34-3.32-2.97-2.94-5.27Z"/></g><g><path class="cls-2" d="M146,93.19c-.18-.16-1.98-1.17-1.98-1.17,1.03-.11,1.65-.9,1.74-1.05,.25-.44,.05-1.07-.42-1.28-.32-.15-.7-.09-1.05-.16-1.02-.19-3.96-.68-4.68-1.66,0,0-1.52-2.42-3.87-4.47-.94,4.53,3.29,12,3.29,12,1.13,2.47,2.12,3.23,3.97,3.26,.29,0,.6-.03,.85-.18,.35-.22,.51-.66,.53-1.08,.01-.38-.09-.77-.28-1.1-.27-.47-.7-.81-1.07-1.2,.83,.15,1.71,.06,2.44-.37,.28-.16,.54-.37,.67-.66s.1-.67-.14-.88Z"/><path class="cls-12" d="M142.58,97.9c-.68-.36-1.15-1.04-1.25-1.81-.12-.98,.62-1.28,1.75-2.08,.51-.35,.07-.72-.62-1.03-4.98-.78-6.96-6.65-6.52-10.28-1.6,4.4,3.09,12.7,3.09,12.7,1.13,2.47,2.12,3.23,3.97,3.26,.29,0,.6-.03,.85-.18,.1-.06,.24-.17,.2-.26-.2-.36-1.01-.08-1.47-.33Z"/></g><g><path class="cls-3" d="M124.91,108.69c1.77,.59,7.45-.62,6.87-6.99-.07-.75-.38-1.51-.99-1.95-.78-.56-1.88-.5-2.72-.03-.83,.47-2.57,2.11-5.84,2.64-.58,.09-1.29,.37-1.6,1.09-.22,.51-.04,1.05,.16,1.57,.75,1.95,2.73,3.23,4.11,3.68Z"/><path class="cls-21" d="M124.95,106.6c-.36,.55-.65,1.14-.82,1.77,.27,.13,.53,.24,.78,.32,1.52,.5,5.92-.32,6.76-4.6-1.05-.47-2.16-.44-3.21-.13-1.45,.42-2.68,1.38-3.51,2.64Z"/><path class="cls-2" d="M124.18,102.81h0c-.39,.13-.82-.09-.94-.48l-.17-.52c-.13-.39,.09-.82,.48-.94h0c.39-.13,.82,.09,.94,.48l.17,.52c.13,.39-.09,.82-.48,.94Z"/><path class="cls-2" d="M126,102.22h0c-.39,.13-.82-.09-.94-.48l-.17-.52c-.13-.39,.09-.82,.48-.94h0c.39-.13,.82,.09,.94,.48l.17,.52c.13,.39-.09,.82-.48,.94Z"/></g><g><g><path class="cls-20" d="M132.65,89.83c0-.16-.13-.29-.29-.3-.53-.03-1.06-.06-1.57-.09l-4.28,3.55c.5,.67,1.3,1.16,2.49,1.26,2.73,.23,3.73-2.89,3.66-4.43Z"/><path class="cls-16" d="M126.3,89.3c-.17,0-.32,.07-.37,.22-.28,1.02-.2,2.44,.57,3.47l4.28-3.55c-1.48-.07-2.92-.1-4.48-.14Z"/><path d="M132.36,89.44c-1.63-.14-3.26-.18-4.89-.23-.98-.03-1.6-.26-1.76,.8-.22,1.49,.29,3.13,1.64,3.91,1.49,.86,3.37,.6,4.42-.78,.43-.56,1.84-3.4,.62-3.71-.12-.03-.17,.12-.08,.18,.44,.32,.09,1.39-.03,1.79-.19,.65-.5,1.28-.96,1.79-1.14,1.24-3.21,1.2-4.41,.05-.47-.46-.77-1.07-.9-1.7-.09-.42-.24-1.42,.01-1.81,.41-.64,2.68-.25,3.33-.23,1,.03,2.01,.08,3.01,.12,.12,0,.11-.17,0-.18Z"/><path d="M132.64,90.15c1.64,.67,3.54,1.09,5.27,1.43,.2,.04,.28-.25,.08-.3-1.73-.46-3.57-.96-5.35-1.19-.04,0-.04,.05,0,.06h0Z"/><path d="M132.65,89.83h.41c.23,0,.41,.18,.41,.41h0c0,.23-.18,.41-.41,.41h-.41v-.82h0Z"/></g><g><path class="cls-20" d="M123.06,89.13c0-.16-.13-.29-.29-.3-.53-.03-1.06-.06-1.57-.09l-4.28,3.55c.5,.67,1.3,1.16,2.49,1.26,2.73,.23,3.73-2.89,3.66-4.43Z"/><path class="cls-16" d="M116.71,88.59c-.17,0-.32,.07-.37,.22-.28,1.02-.2,2.44,.57,3.47l4.28-3.55c-1.48-.07-2.92-.1-4.48-.14Z"/><path d="M122.77,88.73c-1.63-.14-3.26-.18-4.89-.23-.98-.03-1.6-.26-1.76,.8-.22,1.49,.29,3.13,1.64,3.91,1.49,.86,3.37,.6,4.42-.78,.43-.56,1.84-3.4,.62-3.71-.12-.03-.17,.12-.08,.18,.44,.32,.09,1.39-.03,1.79-.19,.65-.5,1.28-.96,1.79-1.14,1.24-3.21,1.2-4.41,.05-.47-.46-.77-1.07-.9-1.7-.09-.42-.24-1.42,.01-1.81,.41-.64,2.68-.25,3.33-.23,1,.03,2.01,.08,3.01,.12,.12,0,.11-.17,0-.18Z"/><path d="M125.8,90.23c.14-.67-.9-1.06-1.42-1.08-.38-.02-1.54,.04-1.49,.64,0,.08,.06,.16,.15,.15,.41-.03,.78-.28,1.22-.3,.29,0,.54,.04,.79,.19,.24,.14,.38,.38,.65,.45,.04,0,.09-.01,.09-.05h0Z"/></g></g><g><rect class="cls-9" x="136.33" y="91.43" width="5.09" height="3.84" rx="1.04" ry="1.04"/><g><path class="cls-13" d="M137.4,93.92c.09-.19,.16-.4,.26-.59,.2-.4,.27-.46,.7-.53,.68-.11,1.36-.11,2.05-.17,.09,0,.09-.13,0-.13-.78-.07-1.68,0-2.44,.19-.5,.12-.51,.75-.65,1.19-.01,.05,.06,.08,.08,.03h0Z"/><path class="cls-13" d="M138.16,93.08c.21,.1,.43,.15,.65,.22,.24,.08,.46,.21,.71,.28,.05,.01,.09-.05,.05-.08-.17-.16-.41-.24-.62-.31-.24-.08-.5-.17-.76-.19-.04,0-.06,.06-.02,.08h0Z"/></g></g><g><path class="cls-12" d="M119.24,98.12c-.54,.61-.36,1.5,.04,2.15,.68,1.13,2.07,.82,2.32,.7,.84-.42,1.48-1.17,1.93-1.99,.22-.41,.4-.84,.54-1.28-1.24-.04-2.41-.29-3.56-.52-.45,.28-.9,.55-1.26,.94Z"/><path class="cls-13" d="M124.42,92.47c-.04-.4-.18-.97-.41-1.48-.51,1.64-1.06,3.25-1.94,4.65-.12,.22-.26,.43-.42,.62-.26,.34-.54,.67-.85,.98,1.05,.21,2.13,.42,3.26,.46,.52-1.65,.52-3.48,.36-5.22Z"/><path class="cls-21" d="M123.29,91.13c-.44,.97-.89,1.96-1.54,2.8-.66,.84-1.55,1.55-2.6,1.76-.8,.17-1.62,.19-2.36,.54-.82,.39-1.02,1.39-.9,2.23,.21,1.46,1.77,1.74,2.08,1.72,1.05-.06,2.03-.56,2.85-1.21,1.93-1.55,2.99-3.94,3.74-6.3,.16-.51,.26-1.31,.21-2.03-.04-.55-.75-.72-1.06-.27-.15,.22-.3,.48-.43,.77Z"/><path class="cls-10" d="M122.83,96.44c-.68,.89-2.17,1.75-3.29,1.92-.58,.09-1.16,.17-1.7,.42-.22,.1-.39,.25-.53,.43-.27,.35-.08,.86,.35,.94,.14,.03,.26,.04,.32,.03,1.05-.06,2.03-.56,2.85-1.21,1.22-.98,2.1-2.3,2.76-3.74-.23,.42-.47,.83-.76,1.2Z"/></g></g><g><path class="cls-17" d="M159.04,124.78c11,0,13.29,11.3,11.4,17.43-1.89,6.13-6.38,11.54-11.89,15.85-10.48,8.18-24.71,12.58-38.99,13.24-7.87,.36-15.99-.4-23.04-3.37-11.36-4.77-21.35-11.47-21.35-19.21v-19.74c0-3.73,1.15-5.8,2.61-7.74,4.49-5.97,13.46-7.63,22.03-7.63,0,0,14.39,23.3,22.23,25.03,7.84,1.72,21.41,2.26,25.72-.86,4.31-3.12,11.28-12.99,11.28-12.99"/><path class="cls-18" d="M161.43,141.21c3.89,.7,8.1,.25,12.42-.69,.75-.16,2.52-2.4,2.52-2.4,.42-.66,.3-1.67,.06-2.17-.11-.23-7.68-1.5-7.68-1.5l-7.62,5.25c.41,1.27-.03,1.46,.3,1.51Z"/><path class="cls-17" d="M161.43,140.22c3.89,.7,8.1,.25,12.42-.69,.75-.16,2.52-2.4,2.52-2.4,.42-.66,.09-1.56-.64-1.77-2.35-.66-7.01-.59-7.01-.59l-7.42,4.76c-.28,.18-.2,.63,.13,.69Z"/><path class="cls-8" d="M84.84,116.04c-2.84,1.18-5.3,2.85-7.06,5.19-1.46,1.94-2.61,4.01-2.61,7.74v19.74c0,4.85,3.93,9.29,9.66,13.11v-45.79Z"/><path class="cls-18" d="M100.52,162.53c-3.14-.64-6.08,1.39-8.07,3.6,1.29,.72,2.65,1.2,4.07,1.8,7.05,2.96,15.17,3.73,23.04,3.37,10.42-.48,20.8-2.95,29.73-7.43-1.54-.85-3.4-1.62-5.2-1.33-19.37,3.1-28.3,3.1-43.57,0Z"/><g><path class="cls-18" d="M98.22,113.63l1.72-.02c3.56,0,6.88,2.06,8.84,5.03l9.11,13.8c2.18,3.3,5.87,5.29,9.83,5.29h13.33c4.4,0,8.42-2.45,10.45-6.35l1.66-2.58c1.47-2.83,3.76-4.26,6.75-4l-3.86,8.5c-2.82,6.02-8.87,9.86-15.52,9.86h-14.25c-5.86,0-11.31-2.99-14.45-7.93l-13.62-21.62Z"/><path class="cls-2" d="M99.95,111.95h0c3.56,0,6.88,1.79,8.84,4.76l9.11,13.8c2.18,3.3,5.87,5.29,9.83,5.29h13.33c4.4,0,8.42-2.45,10.45-6.35l.51-.98c1.3-2.5,3.73-4.18,6.48-4.53,.49-.06,.85,.44,.64,.89l-3.07,6.55c-2.82,6.02-8.87,9.86-15.52,9.86h-14.25c-5.86,0-11.31-2.99-14.45-7.93l-12.69-19.91c-.4-.63,.05-1.45,.8-1.45Z"/><path class="cls-12" d="M158.99,124.11l-2.93,6.26c-2.82,6.02-8.87,9.86-15.52,9.86h-14.25c-5.86,0-11.31-2.99-14.45-7.93l-12.69-19.91c-.18,.29-.21,.68,0,1.01l12.69,19.91c3.15,4.94,8.6,7.93,14.45,7.93h14.25c6.65,0,12.69-3.84,15.52-9.86l3.07-6.55c.12-.26,.05-.55-.14-.72Z"/></g><g><path class="cls-18" d="M110.3,154.88c7.2,4.74,26.55,8.6,36.66,9.99,1.66,.23,8.11-.13,8.11-.13,1.64,0,2.69-.54,2.52-2.32l-10.24-12.2c-18.2,3.9-39.14-.83-39.14-.83-.08,.96-.71,3.64,2.09,5.49Z"/><path class="cls-17" d="M108.42,150.3c6.58,5.56,29.27,11.23,38.9,13.42,1.63,.37,7.43,.04,7.43,.04,1.51,.02,3.59-.45,2.6-1.8-2.67-3.64-7.48-11.38-8.97-13.01-.59-.64-1.45-.89-2.32-.86-16.72,.47-37.11,.73-37.11,.73-.74,.05-1.08,1.02-.53,1.49Z"/><g><path class="cls-5" d="M118.82,148.55c-1.05,.02-2.1,.03-3.15,.05-.14,0-.15,.23,0,.23,1.05-.01,2.1-.03,3.15-.04,.15,0,.15-.23,0-.23h0Z"/><path class="cls-5" d="M126.16,148.43c-1.58,.03-3.15,.02-4.73,.05-.15,0-.15,.23,0,.23,1.58-.02,3.15-.01,4.73-.03,.16,0,.16-.24,0-.24h0Z"/><path class="cls-5" d="M154.95,158.29c-1.67-2.33-3.15-4.78-4.73-7.16-.51-.77-1.02-1.57-1.65-2.26-.79-.87-1.8-1.01-2.93-.99-3.22,.06-6.43,.16-9.65,.23-1.4,.03-2.8,.06-4.2,.09-1.27,.03-2.63-.05-3.88,.18-.12,.02-.12,.23,0,.24,1.09,.16,2.27,.06,3.38,.04,1.33-.02,2.65-.06,3.98-.09,2.92-.07,5.84-.15,8.76-.23,1.52-.04,3.17-.35,4.32,.87,.72,.77,1.3,1.7,1.89,2.58,1.49,2.21,2.92,4.47,4.5,6.61,.08,.11,.28,0,.19-.11h0Z"/></g></g><path class="cls-17" d="M63.36,139.53c-2.13,9.26-1.47,19.06,1.93,28.73,.23,.66,1.07,.88,1.6,.41,1.77-1.58,1.85-3.96,1.62-6.14-.78-7.59-3.56-15.3-3.43-22.8,0-.43-.3-.8-.72-.87h0c-.46-.08-.9,.22-1,.67Z"/><path class="cls-18" d="M65.7,139.92h-2.03c-.91,0-1.64-.73-1.64-1.64h0c0-.91,.73-1.64,1.64-1.64h2.03c.91,0,1.64,.73,1.64,1.64h0c0,.91-.73,1.64-1.64,1.64Z"/><path class="cls-17" d="M65.15,137.03c3-9.02,3.27-18.83,.81-28.78-.17-.68-.98-.98-1.55-.56-1.91,1.41-2.22,3.77-2.2,5.96,.05,7.63,2.09,15.57,1.25,23.03-.05,.42,.22,.82,.63,.93h0c.45,.12,.91-.13,1.06-.57Z"/><path class="cls-1" d="M65.37,138.85c0,5.12,3.89,9.32,8.87,9.82v-19.64c-4.98,.5-8.87,4.7-8.87,9.82Z"/><path class="cls-1" d="M75.18,128.98c-.31,0-.63,.02-.93,.05v19.64c.31,.03,.62,.05,.93,.05v-19.74Z"/><g><path class="cls-8" d="M83.6,158.67c-.1,0-.18-.08-.18-.18v-4.41c0-.1,.08-.18,.18-.18s.18,.08,.18,.18v4.41c0,.1-.08,.18-.18,.18Z"/><path class="cls-8" d="M83.6,150.32c-.1,0-.18-.08-.18-.18v-8.01c0-.1,.08-.18,.18-.18s.18,.08,.18,.18v8.01c0,.1-.08,.18-.18,.18Z"/><path class="cls-8" d="M83.6,140.41c-.1,0-.18-.08-.18-.18v-22.63c0-.1,.08-.18,.18-.18s.18,.08,.18,.18v22.63c0,.1-.08,.18-.18,.18Z"/><path class="cls-8" d="M89.92,163.07c-.1,0-.18-.08-.18-.18v-47.24c0-.1,.08-.18,.18-.18s.18,.08,.18,.18v47.24c0,.1-.08,.18-.18,.18Z"/></g><g><path class="cls-8" d="M88.36,121.21c0,.49-.4,.89-.89,.89s-.89-.4-.89-.89,.4-.89,.89-.89,.89,.4,.89,.89Z"/><path class="cls-8" d="M88.36,116.54c0,.49-.4,.89-.89,.89s-.89-.4-.89-.89,.4-.89,.89-.89,.89,.4,.89,.89Z"/><path class="cls-8" d="M88.36,125.72c0,.49-.4,.89-.89,.89s-.89-.4-.89-.89,.4-.89,.89-.89,.89,.4,.89,.89Z"/><path class="cls-8" d="M88.36,130.12c0,.49-.4,.89-.89,.89s-.89-.4-.89-.89,.4-.89,.89-.89,.89,.4,.89,.89Z"/><path class="cls-8" d="M88.36,134.52c0,.49-.4,.89-.89,.89s-.89-.4-.89-.89,.4-.89,.89-.89,.89,.4,.89,.89Z"/><path class="cls-8" d="M88.36,138.93c0,.49-.4,.89-.89,.89s-.89-.4-.89-.89,.4-.89,.89-.89,.89,.4,.89,.89Z"/><path class="cls-8" d="M88.36,143.33c0,.49-.4,.89-.89,.89s-.89-.4-.89-.89,.4-.89,.89-.89,.89,.4,.89,.89Z"/><path class="cls-8" d="M88.36,147.74c0,.49-.4,.89-.89,.89s-.89-.4-.89-.89,.4-.89,.89-.89,.89,.4,.89,.89Z"/><path class="cls-8" d="M88.36,152.14c0,.49-.4,.89-.89,.89s-.89-.4-.89-.89,.4-.89,.89-.89,.89,.4,.89,.89Z"/><path class="cls-8" d="M88.36,156.54c0,.49-.4,.89-.89,.89s-.89-.4-.89-.89,.4-.89,.89-.89,.89,.4,.89,.89Z"/><path class="cls-8" d="M88.36,161.42c0,.49-.4,.89-.89,.89s-.89-.4-.89-.89,.4-.89,.89-.89,.89,.4,.89,.89Z"/></g></g><path class="cls-5" d="M148.53,131.39c-.71-4.2-2.62-8.12-5.02-11.65-2.4-3.52-5.28-6.68-8.16-9.82l-15.5,.27c-3.57,2.48-6.78,5.55-9.43,8.99,3.79,5.4,7.28,12.37,11.96,16.24,.85,.71,1.94,1.08,3.05,1.04,7.44-.26,13.42-.21,20.85-1.94,1.12-.26,2.02-1.15,2.24-2.28,.05-.27,.06-.55,0-.86Z"/><g><path class="cls-17" d="M129.9,108.12c24.86,1.93,23.89,19.33,19.55,25.1-5.2,6.91-14.57,5.48-14.57,5.48l-.24-4.55c1.17,.12,3.77-.65,4.66-1.42,4.06-3.51,.86-12.71-7.42-11.49l-1.98-13.12Z"/><g class="cls-19"><path class="cls-11" d="M135.11,137.54s10.25,.66,15.2-7.27c.62-1,1.14-2.27,1.47-3.72-.24,2.72-1.17,5.12-2.34,6.67-5.2,6.91-14.57,5.48-14.57,5.48l-.24-4.54,.47,3.38Z"/></g><g><g><path class="cls-1" d="M115.5,130.91c.43-.77,6.03-.7,9.08-.61,1.18,0,2.09,.03,2.09,.03-.38-1.31-.37-3.35,.53-4.38,.55-.62,1.03-1.07,1.83-1.28,.79-.2,1.13,.5,1.17,1.31,.14,2.63,.66,12.7,.66,12.7-4.27,2.06-8.32,.84-9.44-.66-.16-.21-.67-1.94-1.12-3.67-1.83,.17-4.29,.35-4.63,.14-.55-.35-.79-2.52-.19-3.58Z"/><path class="cls-1" d="M120.32,134.35l2.24-.22s-1.4,.4-1.52,1.16c-.09,.56-.09,1.35-.09,1.35l-.63-2.29Z"/></g><rect class="cls-2" x="130.77" y="132.87" width="3.99" height="7.32" rx="1.1" ry="1.1" transform="translate(272.41 266) rotate(177.03)"/><path class="cls-12" d="M133.78,138.85c.44-.02,.84,.22,1.03,.59-.15,.39-.52,.67-.96,.69l-1.79,.09c-.44,.02-.84-.22-1.03-.59,.15-.39,.52-.67,.96-.69l1.79-.09Z"/></g></g><g><path class="cls-14" d="M129.47,175.52c-.2-.11-.43-.13-.65-.11-.68,.07-1.31,.59-1.44,1.27-.13,.67,.3,1.43,.97,1.6,.41,.1,.85,0,1.24-.18,.26-.12,.51-.27,.7-.49,.18-.22,.29-.52,.23-.8-.03-.15-.1-.28-.18-.41-.15-.24-.32-.46-.52-.66l-.33-.21Z"/><path class="cls-14" d="M57.13,150.94c-.41,.09-.96,.42-1.03,.83-.09,.49,.01,1.07,.43,1.34,.35,.23,.83,.17,1.16-.07,.33-.24,.53-.65,.6-1.05,.07-.38-.01-.85-.35-1.03-.24-.13-.54-.07-.8-.01Z"/><path class="cls-14" d="M103.76,138.45c-.18,0-.35,.12-.47,.25-.12,.14-.18,.33-.14,.51,.04,.2,.21,.37,.4,.44s.42,.06,.61-.01c.08-.03,.16-.07,.23-.13,.16-.15,.19-.42,.08-.61-.11-.19-.49-.45-.71-.45Z"/><path class="cls-14" d="M93.89,134.68c.14-.23,.11-.53,.03-.79-.09-.25-.28-.47-.54-.56-.29-.1-.62-.01-.86,.18-.24,.2-.38,.49-.43,.79-.02,.13-.03,.26,0,.38,.07,.32,.39,.55,.72,.56s.92-.29,1.09-.57Z"/><path class="cls-14" d="M95,104.58c-.37,.14-.57,.59-.48,.98,.08,.38,.46,.68,.85,.68,.37,0,.75-.3,.72-.67-.01-.25-.06-.65-.34-.85-.2-.15-.48-.24-.75-.14Z"/><path class="cls-14" d="M67.61,95.85c-.37-.03-.55,.48-1.03,.35-.19,1.63,.88,1.56,1.54,1.2,.35-.19,.69-.53,.61-.92-.09-.45-.66-.59-1.12-.63Z"/><path class="cls-14" d="M180.54,89.52c-.35,.11-.41,.33-.49,.72-.08,.36,.16,.85,.38,1.14,.36,.49,1.11,.48,1.68,.26,.39-.15,.77-.39,.97-.75s.2-.87-.1-1.16c-.17-.16-.4-.24-.62-.29-.6-.13-1.23-.11-1.82,.07Z"/><path class="cls-14" d="M170.79,90.97c-.3,.12-.51,.45-.53,.78-.01,.28,.18,.54,.43,.66,.25,.12,.54,.12,.81,.06,.33-.08,.67-.29,.72-.62,.05-.29-.15-.58-.41-.73-.26-.15-.71-.26-1.03-.14Z"/><path class="cls-14" d="M75.09,103.68c-.31,.52-.24,1.24,.19,1.67,.43,.43,1.12,.55,1.7,.35,.57-.2,1.04-.72,1.13-1.32,.09-.6-.2-1.26-.74-1.55-.54-.29-1.73-.07-2.27,.84Z"/><path class="cls-14" d="M67.78,118.82c-.24,.36-.14,.9,.2,1.17,.34,.27,.88,.23,1.18-.08,.3-.31,.33-.85,.05-1.19-.3-.36-1.1-.41-1.44,.09Z"/><path class="cls-14" d="M79.87,115.8c-.23-.03-.46,.02-.65,.14-.37,.25-.46,.82-.2,1.17,.26,.36,.83,.43,1.18,.16,.35-.27,.41-.84,.12-1.18s-.86-.38-1.19-.09"/><path class="cls-14" d="M106.55,135.38c-.31,.52-.24,1.23,.18,1.66,.42,.43,1.11,.55,1.68,.35,.57-.2,1.03-.72,1.12-1.31,.09-.6-.2-1.24-.73-1.53-.53-.29-1.71-.07-2.25,.84Z"/><path class="cls-14" d="M177.59,119.43c-.24,.36-.14,.9,.2,1.17,.34,.27,.88,.23,1.18-.08,.3-.31,.33-.85,.05-1.19-.3-.36-1.1-.41-1.44,.09Z"/><path class="cls-14" d="M164.21,97.12c-.09,.19-.13,.43,0,.59,.08,.1,.21,.16,.35,.18,.3,.05,.63-.08,.8-.33,.16-.26,.12-.64-.12-.83s-.89,.11-1.02,.38Z"/><path class="cls-14" d="M172.74,149.89c-.32-.04-.65,.02-.92,.2-.52,.35-.66,1.15-.29,1.66,.37,.51,1.18,.61,1.67,.23,.49-.39,.58-1.2,.17-1.68-.4-.48-1.21-.54-1.68-.13"/><path class="cls-14" d="M179.49,101.11c-.27-.24-.65-.35-1.01-.3-.36,.05-.69,.24-.97,.47-.63,.53-1.04,1.32-1.1,2.14-.02,.32,0,.64,.14,.93,.28,.61,1.01,.95,1.67,.87,.67-.08,1.26-.52,1.63-1.08,.43-.65,.59-2.19-.37-3.03Z"/><path class="cls-14" d="M165.19,115.49c-.41,.32-.44,.78-.37,1.01,.15,.49,.8,.91,1.31,.79,.24-.06,.43-.23,.58-.42,.2-.25,.36-.54,.37-.86,.02-.32-.13-.66-.42-.8-.15-.07-.32-.09-.49-.08-.35,.02-.7,.15-.98,.37Z"/><path class="cls-14" d="M184.02,177.52c-.26,.15-.32,.29-.17,.77,.62,.54,1.19-.01,1.14-.53-.01-.13-.06-.26-.17-.34-.22-.18-.55-.04-.8,.1Z"/><path class="cls-14" d="M182.14,164.58c-.48-.73-.88-.39-1.03-.28-.16,.11-.24,.29-.28,.48-.11,.45,.1,1.06,.57,1.09,.16,.01,.31-.04,.44-.13,.37-.24,.55-.79,.31-1.16Z"/></g><g><g><path class="cls-14" d="M168.99,64.63c.03,1.75-.08,3.58,.18,5.31,0,.07,.1,.04,.11-.01,.14-1.74-.09-3.55-.18-5.29,0-.07-.1-.07-.1,0h0Z"/><path class="cls-14" d="M166.58,69.3c1.53-1.29,3.17-2.37,4.78-3.55,.06-.04,0-.13-.05-.09-1.76,.87-3.38,2.23-4.77,3.59-.03,.03,.02,.08,.05,.05h0Z"/><path class="cls-14" d="M167.04,65.42c1.41,1.43,2.92,3.07,4.63,4.15,.07,.04,.14-.05,.08-.11-1.4-1.49-3.12-2.74-4.62-4.13-.06-.05-.14,.03-.09,.09h0Z"/><path class="cls-14" d="M171.57,65.28c-.15,0-.3,.11-.34,.26-.04,.15,.03,.32,.17,.39,.06,.04,.13,.05,.21,.05,.04,0,.08,0,.12-.02,.12-.05,.17-.2,.2-.33,.01-.06,.02-.13,.01-.19s-.05-.13-.11-.15"/><path class="cls-14" d="M171.99,69.42c-.13-.05-.29-.04-.41,.04-.12,.08-.19,.23-.17,.37,0,.06,.03,.12,.06,.17,.06,.11,.15,.21,.27,.25,.18,.06,.39-.04,.5-.19,.06-.09,.1-.2,.08-.31-.01-.11-.09-.21-.19-.24"/><path class="cls-14" d="M169.33,69.95c-.12-.13-.36-.12-.48,.01-.13,.13-.15,.34-.09,.51,.03,.07,.06,.14,.12,.2,.11,.09,.27,.11,.41,.09,.1-.01,.2-.04,.28-.1,.16-.13,.17-.37,.1-.56-.03-.09-.1-.18-.19-.17"/><path class="cls-14" d="M166.46,69.07c-.07-.01-.12-.01-.21-.01-.09,0-.18,.07-.23,.14-.06,.08-.06,.19-.02,.29,.04,.09,.11,.17,.2,.22,.07,.05,.16,.08,.24,.06,.08-.01,.15-.05,.21-.1,.07-.05,.14-.11,.15-.19,0-.04,0-.08-.01-.11-.05-.15-.18-.26-.33-.29"/><path class="cls-14" d="M166.82,65.01s-.07,0-.1,.02c-.13,.08-.23,.2-.29,.34-.04,.09-.06,.19-.04,.29,.04,.17,.21,.29,.38,.3,.17,0,.34-.09,.45-.22,.09-.12,.15-.28,.11-.42-.03-.15-.17-.27-.32-.27"/><path class="cls-14" d="M168.68,64.28c-.07,.02-.12,.09-.13,.16-.02,.09-.02,.18,.03,.26,.09,.14,.29,.17,.46,.17,.1,0,.19,0,.28-.05,.13-.07,.21-.22,.2-.37-.02-.15-.12-.28-.26-.34-.14-.06-.3-.03-.43,.05"/></g><g><path class="cls-14" d="M166.64,121.95c.01,.86-.04,1.76,.09,2.61,0,.03,.05,.02,.05,0,.07-.85-.05-1.75-.09-2.6,0-.03-.05-.03-.05,0h0Z"/><path class="cls-14" d="M165.46,124.24c.75-.63,1.56-1.16,2.35-1.74,.03-.02,0-.06-.03-.05-.86,.43-1.66,1.09-2.34,1.76-.02,.02,0,.04,.03,.03h0Z"/><path class="cls-14" d="M165.68,122.33c.69,.7,1.43,1.51,2.27,2.04,.03,.02,.07-.03,.04-.05-.69-.73-1.53-1.35-2.27-2.03-.03-.03-.07,.01-.04,.04h0Z"/><path class="cls-14" d="M167.91,122.27c-.07,0-.15,.06-.16,.13-.02,.07,.02,.16,.08,.19,.03,.02,.07,.02,.1,.02,.02,0,.04,0,.06-.01,.06-.03,.09-.1,.1-.16,0-.03,.01-.06,0-.09,0-.03-.02-.06-.05-.07"/><path class="cls-14" d="M168.12,124.3c-.07-.03-.14-.02-.2,.02-.06,.04-.09,.11-.08,.18,0,.03,.02,.06,.03,.09,.03,.05,.07,.1,.13,.12,.09,.03,.19-.02,.24-.09,.03-.04,.05-.1,.04-.15,0-.05-.04-.1-.09-.12"/><path class="cls-14" d="M166.81,124.56c-.06-.07-.18-.06-.24,0-.06,.06-.07,.16-.04,.25,.01,.04,.03,.07,.06,.1,.05,.05,.13,.05,.2,.04,.05,0,.1-.02,.14-.05,.08-.06,.08-.18,.05-.28-.02-.04-.05-.09-.1-.08"/><path class="cls-14" d="M165.4,124.13s-.06,0-.1,0-.09,.03-.11,.07c-.03,.04-.03,.1-.01,.14,.02,.05,.05,.08,.1,.11,.04,.02,.08,.04,.12,.03,.04,0,.07-.03,.1-.05,.03-.02,.07-.05,.07-.09,0-.02,0-.04,0-.06-.02-.07-.09-.13-.16-.14"/><path class="cls-14" d="M165.58,122.13s-.04,0-.05,0c-.06,.04-.11,.1-.14,.17-.02,.04-.03,.09-.02,.14,.02,.08,.1,.14,.19,.15,.09,0,.17-.04,.22-.11,.05-.06,.07-.14,.06-.21-.02-.07-.08-.13-.16-.13"/><path class="cls-14" d="M166.49,121.78s-.06,.05-.07,.08c-.01,.04,0,.09,.02,.13,.04,.07,.14,.08,.22,.08,.05,0,.1,0,.14-.03,.07-.03,.11-.11,.1-.18,0-.07-.06-.14-.13-.17-.07-.03-.15-.02-.21,.03"/></g><g><path class="cls-14" d="M57.38,112.03c.02,1.11-.05,2.27,.11,3.37,0,.04,.07,.03,.07,0,.09-1.1-.06-2.26-.12-3.36,0-.04-.07-.04-.07,0h0Z"/><path class="cls-14" d="M55.85,114.99c.97-.82,2.01-1.51,3.03-2.26,.04-.03,0-.08-.03-.06-1.12,.55-2.15,1.41-3.03,2.28-.02,.02,.01,.05,.03,.03h0Z"/><path class="cls-14" d="M56.14,112.53c.89,.91,1.86,1.95,2.94,2.64,.04,.03,.09-.03,.05-.07-.89-.95-1.98-1.74-2.94-2.63-.04-.03-.09,.02-.05,.05h0Z"/><path class="cls-14" d="M59.02,112.44c-.1,0-.19,.07-.21,.17-.02,.09,.02,.2,.11,.25,.04,.02,.09,.03,.13,.03,.03,0,.05,0,.07-.01,.08-.03,.11-.13,.13-.21,0-.04,.02-.08,0-.12,0-.04-.03-.08-.07-.1"/><path class="cls-14" d="M59.29,115.07c-.08-.03-.19-.03-.26,.02-.08,.05-.12,.15-.11,.24,0,.04,.02,.08,.04,.11,.04,.07,.09,.14,.17,.16,.11,.04,.25-.02,.32-.12,.04-.06,.06-.13,.05-.19s-.06-.13-.12-.15"/><path class="cls-14" d="M57.6,115.41c-.08-.09-.23-.07-.31,0-.08,.08-.09,.21-.06,.32,.02,.05,.04,.09,.08,.12,.07,.06,.17,.07,.26,.06,.06,0,.13-.02,.18-.06,.1-.08,.11-.24,.06-.36-.02-.05-.07-.11-.12-.11"/><path class="cls-14" d="M55.78,114.85s-.07,0-.13,0c-.06,0-.12,.04-.15,.09-.04,.05-.04,.12-.01,.18,.02,.06,.07,.11,.12,.14,.05,.03,.1,.05,.15,.04,.05,0,.09-.03,.13-.06,.04-.03,.09-.07,.1-.12,0-.02,0-.05,0-.07-.03-.09-.11-.17-.21-.19"/><path class="cls-14" d="M56,112.27s-.05,0-.07,.01c-.08,.05-.15,.13-.18,.22-.03,.06-.04,.12-.03,.18,.02,.11,.13,.19,.24,.19s.22-.05,.29-.14c.06-.08,.09-.18,.07-.27-.02-.09-.11-.17-.2-.17"/><path class="cls-14" d="M57.18,111.8s-.07,.06-.08,.1c-.01,.06,0,.12,.02,.17,.06,.09,.18,.11,.29,.11,.06,0,.12,0,.18-.03,.08-.04,.14-.14,.13-.24,0-.09-.08-.18-.17-.21s-.19-.02-.27,.03"/></g><g><path class="cls-14" d="M136.48,58.56c.03,1.61-.07,3.31,.16,4.91,0,.06,.1,.04,.1-.01,.12-1.61-.09-3.29-.17-4.89,0-.06-.1-.06-.1,0h0Z"/><path class="cls-14" d="M134.25,62.88c1.42-1.19,2.93-2.19,4.42-3.28,.05-.04,0-.12-.05-.09-1.62,.8-3.13,2.06-4.41,3.32-.03,.03,.01,.07,.05,.05h0Z"/><path class="cls-14" d="M134.67,59.29c1.3,1.33,2.7,2.84,4.28,3.84,.06,.04,.12-.05,.08-.1-1.29-1.38-2.88-2.54-4.27-3.82-.05-.05-.13,.03-.08,.08h0Z"/><path class="cls-14" d="M138.86,59.16c-.14,0-.27,.11-.31,.24-.04,.14,.03,.29,.15,.36,.06,.03,.12,.05,.19,.05,.04,0,.07,0,.11-.02,.11-.05,.16-.18,.19-.3,.01-.06,.02-.12,.01-.18-.01-.06-.05-.12-.1-.14"/><path class="cls-14" d="M139.25,62.99c-.12-.05-.27-.04-.38,.04-.11,.07-.18,.21-.16,.34,0,.06,.03,.11,.06,.16,.06,.1,.14,.2,.25,.24,.17,.06,.36-.03,.46-.18,.06-.08,.09-.18,.08-.28s-.08-.19-.18-.22"/><path class="cls-14" d="M136.79,63.48c-.11-.12-.33-.11-.45,.01-.12,.12-.14,.31-.08,.47,.02,.07,.06,.13,.11,.18,.1,.09,.25,.1,.38,.08,.09-.01,.19-.04,.26-.09,.15-.12,.16-.34,.09-.52-.03-.08-.09-.17-.18-.15"/><path class="cls-14" d="M134.14,62.66c-.07,0-.11-.01-.19-.01s-.17,.06-.22,.13c-.05,.08-.06,.18-.02,.27,.03,.09,.1,.16,.18,.2,.07,.04,.15,.07,.23,.06,.07,0,.13-.05,.19-.09,.06-.05,.13-.1,.14-.18,0-.04,0-.07-.01-.11-.04-.13-.16-.24-.3-.27"/><path class="cls-14" d="M134.47,58.91s-.07,0-.1,.02c-.12,.07-.21,.19-.27,.31-.04,.08-.06,.18-.04,.27,.03,.16,.19,.27,.35,.28,.16,0,.32-.08,.42-.21,.09-.11,.14-.26,.11-.39-.03-.14-.16-.25-.3-.25"/><path class="cls-14" d="M136.19,58.23c-.07,.02-.11,.08-.12,.15-.02,.08-.01,.17,.03,.24,.08,.13,.26,.16,.42,.15,.09,0,.18,0,.26-.05,.12-.06,.2-.21,.18-.34-.01-.14-.11-.26-.24-.31-.13-.05-.28-.03-.4,.05"/></g><g><path class="cls-14" d="M100.07,98.87c.02,1.11-.05,2.27,.11,3.37,0,.04,.07,.03,.07,0,.09-1.1-.06-2.26-.12-3.36,0-.04-.07-.04-.07,0h0Z"/><path class="cls-14" d="M98.54,101.84c.97-.82,2.01-1.51,3.03-2.26,.04-.03,0-.08-.03-.06-1.12,.55-2.15,1.41-3.03,2.28-.02,.02,.01,.05,.03,.03h0Z"/><path class="cls-14" d="M98.83,99.37c.89,.91,1.86,1.95,2.94,2.64,.04,.03,.09-.03,.05-.07-.89-.95-1.98-1.74-2.94-2.63-.04-.03-.09,.02-.05,.05h0Z"/><path class="cls-14" d="M101.71,99.29c-.1,0-.19,.07-.21,.17-.02,.09,.02,.2,.11,.25,.04,.02,.09,.03,.13,.03,.03,0,.05,0,.07-.01,.08-.03,.11-.13,.13-.21,0-.04,.02-.08,0-.12,0-.04-.03-.08-.07-.1"/><path class="cls-14" d="M101.98,101.92c-.08-.03-.19-.03-.26,.02-.08,.05-.12,.15-.11,.24,0,.04,.02,.08,.04,.11,.04,.07,.09,.14,.17,.16,.11,.04,.25-.02,.32-.12,.04-.06,.06-.13,.05-.19,0-.07-.06-.13-.12-.15"/><path class="cls-14" d="M100.29,102.25c-.08-.09-.23-.07-.31,0-.08,.08-.09,.21-.06,.32,.02,.05,.04,.09,.08,.12,.07,.06,.17,.07,.26,.06,.06,0,.13-.02,.18-.06,.1-.08,.11-.24,.06-.36-.02-.05-.07-.11-.12-.11"/><path class="cls-14" d="M98.47,101.69s-.07,0-.13,0c-.06,0-.12,.04-.15,.09-.04,.05-.04,.12-.01,.18s.07,.11,.12,.14c.05,.03,.1,.05,.15,.04,.05,0,.09-.03,.13-.06,.04-.03,.09-.07,.1-.12,0-.02,0-.05,0-.07-.03-.09-.11-.17-.21-.19"/><path class="cls-14" d="M98.69,99.11s-.05,0-.07,.01c-.08,.05-.15,.13-.18,.22-.03,.06-.04,.12-.03,.18,.02,.11,.13,.19,.24,.19,.11,0,.22-.05,.29-.14,.06-.08,.09-.18,.07-.27-.02-.09-.11-.17-.2-.17"/><path class="cls-14" d="M99.88,98.65s-.07,.06-.08,.1c-.01,.06,0,.12,.02,.17,.06,.09,.18,.11,.29,.11,.06,0,.12,0,.18-.03,.08-.04,.14-.14,.13-.24,0-.09-.08-.18-.17-.21-.09-.03-.19-.02-.27,.03"/></g></g><g><g><path class="cls-6" d="M200.12,66.9h-24.79c-.11,0-.2-.1-.2-.21s.09-.21,.2-.21h24.79c.11,0,.2,.1,.2,.21s-.09,.21-.2,.21Z"/><path class="cls-6" d="M196.65,69.62h-11.01c-.11,0-.2-.1-.2-.21s.09-.21,.2-.21h11.01c.11,0,.2,.1,.2,.21s-.09,.21-.2,.21Z"/><path class="cls-6" d="M205.07,69.62h-7.19c-.11,0-.2-.1-.2-.21s.09-.21,.2-.21h7.19c.11,0,.2,.1,.2,.21s-.09,.21-.2,.21Z"/><path class="cls-6" d="M191.14,80.27h-13.83c-.11,0-.2-.1-.2-.21s.09-.21,.2-.21h13.83c.11,0,.2,.1,.2,.21s-.09,.21-.2,.21Z"/><path class="cls-6" d="M197.88,80.27h-3.72c-.11,0-.2-.1-.2-.21s.09-.21,.2-.21h3.72c.11,0,.2,.1,.2,.21s-.09,.21-.2,.21Z"/><path class="cls-6" d="M203.39,80.27h-1.91c-.11,0-.2-.1-.2-.21s.09-.21,.2-.21h1.91c.11,0,.2,.1,.2,.21s-.09,.21-.2,.21Z"/><path class="cls-6" d="M182.76,83.73h-11.5c-.11,0-.2-.1-.2-.21s.09-.21,.2-.21h11.5c.11,0,.2,.1,.2,.21s-.09,.21-.2,.21Z"/><path class="cls-6" d="M188.71,83.73h-2.18c-.11,0-.2-.1-.2-.21s.09-.21,.2-.21h2.18c.11,0,.2,.1,.2,.21s-.09,.21-.2,.21Z"/></g><g><path class="cls-6" d="M186.88,97.43h-10.01c-.11,0-.2-.1-.2-.21s.09-.21,.2-.21h10.01c.11,0,.2,.1,.2,.21s-.09,.21-.2,.21Z"/><path class="cls-6" d="M194.71,97.43h-5.43c-.11,0-.2-.1-.2-.21s.09-.21,.2-.21h5.43c.11,0,.2,.1,.2,.21s-.09,.21-.2,.21Z"/><path class="cls-6" d="M199.18,103h-11.7c-.11,0-.2-.1-.2-.21s.09-.21,.2-.21h11.7c.11,0,.2,.1,.2,.21s-.09,.21-.2,.21Z"/><path class="cls-6" d="M208.4,105.17h-10.76c-.11,0-.2-.1-.2-.21s.09-.21,.2-.21h10.76c.11,0,.2,.1,.2,.21s-.09,.21-.2,.21Z"/></g><g><path class="cls-6" d="M185.01,158.43h-15.67c-.11,0-.2-.1-.2-.21s.09-.21,.2-.21h15.67c.11,0,.2,.1,.2,.21s-.09,.21-.2,.21Z"/><path class="cls-6" d="M182.53,161.16h-8.09c-.11,0-.2-.1-.2-.21s.09-.21,.2-.21h8.09c.11,0,.2,.1,.2,.21s-.09,.21-.2,.21Z"/><path class="cls-6" d="M190.36,158.43h-3.07c-.11,0-.2-.1-.2-.21s.09-.21,.2-.21h3.07c.11,0,.2,.1,.2,.21s-.09,.21-.2,.21Z"/><path class="cls-6" d="M176.28,166.84h-6.94c-.11,0-.2-.1-.2-.21s.09-.21,.2-.21h6.94c.11,0,.2,.1,.2,.21s-.09,.21-.2,.21Z"/><path class="cls-6" d="M182.93,166.84h-3.57c-.11,0-.2-.1-.2-.21s.09-.21,.2-.21h3.57c.11,0,.2,.1,.2,.21s-.09,.21-.2,.21Z"/><path class="cls-6" d="M87.53,102.53h-15.67c-.11,0-.2-.1-.2-.21s.09-.21,.2-.21h15.67c.11,0,.2,.1,.2,.21s-.09,.21-.2,.21Z"/><path class="cls-6" d="M92.89,102.53h-3.07c-.11,0-.2-.1-.2-.21s.09-.21,.2-.21h3.07c.11,0,.2,.1,.2,.21s-.09,.21-.2,.21Z"/><path class="cls-6" d="M78.8,110.95h-6.94c-.11,0-.2-.1-.2-.21s.09-.21,.2-.21h6.94c.11,0,.2,.1,.2,.21s-.09,.21-.2,.21Z"/><path class="cls-6" d="M85.45,110.95h-3.57c-.11,0-.2-.1-.2-.21s.09-.21,.2-.21h3.57c.11,0,.2,.1,.2,.21s-.09,.21-.2,.21Z"/><path class="cls-6" d="M88.13,167.74h-15.67c-.11,0-.2-.1-.2-.21s.09-.21,.2-.21h15.67c.11,0,.2,.1,.2,.21s-.09,.21-.2,.21Z"/><path class="cls-6" d="M93.49,167.74h-3.07c-.11,0-.2-.1-.2-.21s.09-.21,.2-.21h3.07c.11,0,.2,.1,.2,.21s-.09,.21-.2,.21Z"/><path class="cls-6" d="M79.41,173.47h-6.94c-.11,0-.2-.1-.2-.21s.09-.21,.2-.21h6.94c.11,0,.2,.1,.2,.21s-.09,.21-.2,.21Z"/><path class="cls-6" d="M86.05,173.47h-3.57c-.11,0-.2-.1-.2-.21s.09-.21,.2-.21h3.57c.11,0,.2,.1,.2,.21s-.09,.21-.2,.21Z"/><path class="cls-6" d="M188.83,163.99h-11.16c-.11,0-.2-.1-.2-.21s.09-.21,.2-.21h11.16c.11,0,.2,.1,.2,.21s-.09,.21-.2,.21Z"/></g><g><path class="cls-6" d="M164.13,178.5h-15.94c-.11,0-.2-.1-.2-.21s.09-.21,.2-.21h15.94c.11,0,.2,.1,.2,.21s-.09,.21-.2,.21Z"/><path class="cls-6" d="M158.04,183.36h-7.29c-.11,0-.2-.1-.2-.21s.09-.21,.2-.21h7.29c.11,0,.2,.1,.2,.21s-.09,.21-.2,.21Z"/><path class="cls-6" d="M171.29,178.5h-5.08c-.11,0-.2-.1-.2-.21s.09-.21,.2-.21h5.08c.11,0,.2,.1,.2,.21s-.09,.21-.2,.21Z"/><path class="cls-6" d="M146.65,187.01h-4.91c-.11,0-.2-.1-.2-.21s.09-.21,.2-.21h4.91c.11,0,.2,.1,.2,.21s-.09,.21-.2,.21Z"/><path class="cls-6" d="M164.13,187.01h-14.69c-.11,0-.2-.1-.2-.21s.09-.21,.2-.21h14.69c.11,0,.2,.1,.2,.21s-.09,.21-.2,.21Z"/><path class="cls-6" d="M186.09,178.5h-5.9c-.11,0-.2-.1-.2-.21s.09-.21,.2-.21h5.9c.11,0,.2,.1,.2,.21s-.09,.21-.2,.21Z"/><path class="cls-6" d="M180.38,183.36h-18.43c-.11,0-.2-.1-.2-.21s.09-.21,.2-.21h18.43c.11,0,.2,.1,.2,.21s-.09,.21-.2,.21Z"/></g></g></g><rect class="cls-15" width="240" height="240"/></g></g></svg>