<?xml version="1.0" encoding="UTF-8"?>
<svg id="Wreath" xmlns="http://www.w3.org/2000/svg" viewBox="0 0 512 512">
	<defs>
		<style>.cls-1{fill:#00514a;}.cls-2{fill:#f7ca07;}.cls-3{fill:#13a684;}.cls-4{fill:#028072;}.cls-5{fill:#eef3f4;}.cls-6{fill:#f79f05;}.cls-7{fill:#3fa9f5;}.cls-8{fill:none;}.cls-9{fill:#d41721;}.cls-10{fill:#5fc168;}.cls-11{fill:red;}.cls-12{fill:#f53a1f;}</style>
	</defs>
	<g id="Barchart_Icon">
		<g>
			<rect class="cls-10" x="288.94" y="185.9" width="36.72" height="140.2"/>
			<rect class="cls-11" x="185.9" y="276.7" width="36.72" height="49.4"/>
			<rect class="cls-7" x="237.64" y="227.29" width="36.72" height="98.8"/>
			<rect class="cls-10" x="289.38" y="185.9" width="36.72" height="140.2"/>
		</g>
		<rect class="cls-8" x="136.5" y="136.5" width="239" height="239"/>
	</g>
	<circle class="cls-8" cx="256" cy="256" r="256"/>
	<g>
		<path class="cls-1" d="M432.76,310.25c-1.2-8.72-4.07-16.63-9.53-22.35-.95-1-1.98-1.93-3.1-2.79,0,0-.72,.58-1.8,1.84-.45,.53-.97,1.17-1.52,1.94,.18-1.42,.23-2.63,.23-3.59,0-.64-.02-1.17-.06-1.58,.79-6.5,1.2-13.09,1.2-19.74,0-10.39-.99-20.64-2.92-30.62,8.1,11.11,22.24,24.03,46.75,36.95,0,0-11.59-36.89-31.64-56.72,0,0,0,0-.02-.02-6.26-6.19-13.35-10.71-21.17-11.93-1.21-.19-2.45-.29-3.69-.32-5.03-11.83-11.52-23.05-19.36-33.45,11.93,5.97,29.24,10.97,54.3,12.46,0,0-25.79-28.82-52.24-38.6,0,0,0,0-.03,0-8.26-3.05-16.58-4.25-24.21-2.12-1.2,.33-2.39,.76-3.55,1.26-4.82-4.02-9.85-7.73-15.05-11.12,12.42,1.15,28.46,.18,49.06-4.81,0,0-33.09-20.01-61.25-21.62,0,0,0,0-.03,0-8.79-.5-17.1,.79-23.77,5.06-1.16,.74-2.27,1.58-3.33,2.5,0,0,.08,.15,.25,.42-14.76-4.63-30.28-7.12-46.17-7.31-2.51-.36-4.88-.59-7.11-.69,0,0-.01,0-.03,0-.01,0-.03,0-.05,0-1.63-.08-3.18-.08-4.66-.04,1.65-.76,3.37-1.63,5.14-2.65,.02,0,.04-.02,.05-.03,.02,0,.03-.02,.03-.02,12.15-6.99,26.98-20.47,42.57-46.05,0,0-37.54,9.27-58.58,28.05,0,0,0,0-.02,.02-6.56,5.87-11.53,12.66-13.22,20.39-.3,1.34-.49,2.72-.58,4.13,0,0,.49,.15,1.41,.31-11.11,2.33-21.9,5.82-32.2,10.43,8.19-10.62,16.46-26.83,22.63-51.57,0,0-33.07,20.04-47.56,44.24,0,0,0,0-.01,.03-4.52,7.56-7.23,15.52-6.54,23.4,.07,.8,.18,1.6,.32,2.39-5.56,4.22-10.88,8.83-15.93,13.81,4.09-12.28,6.71-29.16,5.67-52.29,0,0-25.97,28.65-32.94,55.98,0,0,0,0,0,.03-2.17,8.53-2.49,16.93,.41,24.3,.5,1.28,1.11,2.53,1.82,3.75,0,0,.02,0,.04-.01-.4,.67-.79,1.34-1.17,2.01-7,8.16-11.68,15.64-14.77,22.27-3.63-12.76-11.47-28.75-26.85-48.05,0,0-4.19,38.44,6.23,64.65,0,0,0,0,.01,.03,3.26,8.18,7.93,15.17,14.61,19.42,.25,.16,.51,.3,.76,.44-.93,7.01-1.41,14.14-1.41,21.33,0,1.48,.02,2.95,.06,4.42-8.01-10.44-20.96-22.3-41.77-34.52,0,0,9.88,37.39,29,58.12,0,0,0,0,.02,.02,5.23,5.66,11.15,10.09,17.75,12.15,2.66,10.32,6.35,20.32,11.01,29.88-10.86-6.84-26.36-13.37-48.53-17.98,0,0,21.32,32.26,46.07,45.78,0,0,0,0,.03,.01,7.73,4.22,15.79,6.61,23.64,5.62,.2-.02,.4-.06,.61-.09,2.84,3.35,5.83,6.6,8.97,9.74,1.42,1.42,2.86,2.79,4.32,4.15-11.93-2.8-27.51-4.12-47.84-2.4,0,0,29.65,24.83,57.23,30.72,0,0,0,0,.03,0,8.61,1.83,17.02,1.83,24.26-1.37,.96-.42,1.9-.9,2.81-1.44,8.08,4.1,16.5,7.5,25.17,10.16-11.88,2.51-26.36,7.82-43.77,17.7,0,0,37.32,10.14,64.83,3.95,0,0,0,0,.03,0,8.59-1.94,16.22-5.46,21.46-11.39,.89-1,1.71-2.09,2.45-3.24,.72,0,1.43,.03,2.15,.03,8.18,0,16.27-.61,24.21-1.81-9.24,7.26-19.5,17.84-30.39,33.12,0,0,38.11-6.56,60.44-23.78,0,0,0,0,.02-.02,6.97-5.38,12.4-11.8,14.65-19.39,.39-1.32,.69-2.68,.88-4.07,9.88-4.8,19.28-10.63,28.07-17.45-5.03,11.48-9.16,27.14-10.85,48.5,0,0,29.31-25.23,39.6-51.49,0,0,0,0,0-.03,3.21-8.2,4.56-16.5,2.59-24.16-.3-1.17-.69-2.33-1.15-3.47,9.58-12.73,17.14-26.71,22.48-41.52-.04,13.6,3.49,31.94,14.61,56.11,0,0,13.27-36.32,9.44-64.26,0,0,0,0,0-.03ZM302.74,115.09c-.17,.87-.3,1.75-.38,2.63-.05,.5-.08,1.01-.1,1.52-6.35-3.45-12.27-6.23-17.78-8.43,6.22,1.07,12.32,2.5,18.27,4.29Zm-138.56,25.2c-.77,1.01-1.1,1.63-1.1,1.63,1.05,.94,2.15,1.78,3.31,2.53,4.39,2.86,9.52,4.42,15.04,5.03-16.77,2.66-28.79,7.22-37.39,12.22,.1-.7,.14-1.08,.14-1.08-1.76,1.4-3.45,2.79-5.08,4.16,.35-.57,.69-1.17,1.03-1.78,7.19-8.39,15.26-16.01,24.06-22.71Zm-61.27,130.59c-.1-2.29-.16-4.59-.16-6.91,0-8.06,.62-15.97,1.81-23.7,.32-.75,.65-1.63,.97-2.6,5.5-2.08,10.26-5.86,14.38-10.67-9.91,17.63-14.9,32.15-16.99,43.88Zm7.26,40.56c1.13-.71,2.2-1.49,3.19-2.34,3.55-3.03,6.27-6.92,8.34-11.34-2.3,18.58-1.1,32.54,1.6,42.92-.17-.14-.34-.28-.51-.43-5.13-9.08-9.38-18.72-12.62-28.81Zm217.61,91.45c-.47-.84-.97-1.66-1.53-2.43-4.59-6.45-11.82-10.75-20.16-13.57-.02,0-.03-.01-.03-.01-26.72-9.03-64.89-2.84-64.89-2.84,24.37,17.42,43.3,24.01,57.21,25.68,0,0,.01,0,.03,0,.01,0,.03,0,.05,0,1.62,.19,3.16,.31,4.65,.38-1.7,.64-3.48,1.39-5.32,2.28-.02,0-.04,.02-.05,.02-.02,0-.03,.01-.03,.01-1.97,.95-4.01,2.05-6.12,3.33-10.78,2.37-21.97,3.64-33.45,3.64-.02,0-.04,0-.05,0-.07-1.05-.2-2.08-.39-3.1-1.44-7.78-6.18-14.73-12.54-20.81-.01-.01-.02-.02-.02-.02-20.41-19.46-57.63-29.96-57.63-29.96,14.74,26.08,29.12,40.04,41.03,47.43,0,0,.01,0,.03,.02,0,0,.03,.02,.05,.03,1.39,.86,2.74,1.62,4.05,2.31-1.81-.14-3.73-.21-5.78-.18-.02,0-.04,0-.05,0-.02,0-.03,0-.03,0-1.35,.02-2.75,.08-4.2,.19-11.34-2.66-22.21-6.58-32.45-11.58,.49-1.19,.89-2.41,1.2-3.64,1.95-7.67,.56-15.97-2.68-24.15,0-.02,0-.03,0-.03-10.39-26.22-39.8-51.33-39.8-51.33,2.47,29.85,9.69,48.55,17.41,60.25,0,0,0,.01,.02,.03,0,.01,.02,.03,.03,.04,.9,1.35,1.8,2.61,2.7,3.78-1.58-.88-3.3-1.75-5.16-2.57-.02-.01-.04-.02-.05-.02-.02,0-.03-.01-.03-.01-1.12-.5-2.29-.98-3.52-1.44-6.46-5.25-12.49-11.01-18.03-17.21,.53-.72,1.03-1.46,1.48-2.22,4.06-6.8,5.09-15.14,4.33-23.91,0-.02,0-.03,0-.03-2.07-23.51-17.12-50.07-21.97-58.12,4.2-24.27-2.35-53.95-3.63-59.33,.37-.5,.74-1.01,1.1-1.53,.01-.02,.02-.02,.02-.02,6.95-10.05,11.74-22.95,14.94-34.35,4.09-.35,8.27-1.34,12.44-2.8,.02,0,.03,0,.03,0,24.24-8.52,48.19-32.86,52.25-37.11,24.44-5.15,48.35-19.32,48.35-19.32-29.05-7.3-49.08-6.51-62.64-2.98,0,0-.01,0-.03,0-.01,0-.03,0-.05,.02-1.19,.31-2.32,.64-3.41,.99,12.08-6.42,25.1-11.3,38.8-14.36,.51,.76,1.05,1.51,1.63,2.21,5.04,6.1,12.56,9.88,21.08,12.1,.02,0,.03,0,.03,0,19.02,4.94,43.05,2.12,55.88-.05,.98,4.94,3.06,9.85,5.84,14.61,.01,.02,.01,.03,.01,.03,14.27,24.32,47.17,44.65,47.17,44.65-7-29.12-16.99-46.5-26.41-56.88,0,0,0-.01-.02-.02,0-.01-.02-.02-.04-.04-1.09-1.2-2.18-2.3-3.25-3.32,1.7,.63,3.53,1.22,5.5,1.76,.02,0,.04,.01,.05,.02,.02,0,.03,0,.03,0,.29,.08,.58,.15,.88,.23,8.3,4.55,16.14,9.84,23.44,15.77-.58,1.02-1.1,2.06-1.54,3.13-3.03,7.32-2.84,15.72-.8,24.29,0,.02,0,.03,0,.03,6.53,27.44,32.04,56.5,32.04,56.5,1.83-29.9-2.64-49.44-8.61-62.12,0,0,0-.01-.01-.03,0-.01-.01-.03-.02-.05-.41-.88-.84-1.72-1.26-2.53,10.07,11.67,18.43,24.85,24.7,39.14-.99,.71-1.93,1.46-2.81,2.28-5.78,5.41-9.08,13.15-10.76,21.79,0,.02,0,.03,0,.03-5.38,27.68,5.85,64.69,5.85,64.69,12.95-24.46,17.34-43.09,17.78-56.84,1.94,9.8,2.97,19.93,2.97,30.3,0,6.39-.4,12.69-1.15,18.88-7.77,.85-15,4.94-21.52,10.7-.02,.01-.02,.02-.02,.02-21.12,18.68-34.75,54.88-34.75,54.88,25.85-11.84,40.8-24.28,49.41-35.13-5.11,15.22-12.52,29.39-21.81,42.11-.99-.59-2.01-1.12-3.06-1.57-7.26-3.17-15.67-3.14-24.27-1.27-.02,0-.03,0-.03,0-27.56,6-57.11,30.94-57.11,30.94,29.86,2.41,49.48-1.69,62.27-7.41,0,0,.01,0,.03-.01,.01,0,.03-.01,.05-.02,1.48-.67,2.87-1.35,4.17-2.05-1.13,1.42-2.26,2.97-3.38,4.68-.02,.02-.03,.03-.03,.04-.01,.02-.02,.03-.02,.03-.2,.3-.39,.61-.59,.92-10.21,9.15-21.63,16.97-33.99,23.19Z"/>
		<g>
			<path class="cls-4" d="M254.76,454.04c-50.06,0-97.12-19.49-132.52-54.89-35.4-35.4-54.89-82.46-54.89-132.52s19.49-97.12,54.89-132.52c35.4-35.4,82.46-54.89,132.52-54.89s97.12,19.49,132.52,54.89c35.4,35.4,54.89,82.46,54.89,132.52s-19.49,97.12-54.89,132.52c-35.4,35.4-82.46,54.89-132.52,54.89Zm0-369.43c-100.36,0-182.02,81.65-182.02,182.02s81.65,182.02,182.02,182.02,182.02-81.65,182.02-182.02S355.12,84.61,254.76,84.61Z"/>
			<g>
				<g>
					<path class="cls-3" d="M191.13,129.98s-30.74,33.26-61.9,44.22c0,0,0,0-.03,0-9.73,3.41-19.5,4.66-28.39,2.03-1.55-.45-3.07-1.04-4.56-1.74,0,0,.22-1.06,.95-2.86,1.95-4.83,7.59-14.92,22.54-23.99,.02-.02,.04-.03,.05-.03,.02-.01,.03-.02,.03-.02,14.04-8.5,36.26-16.09,71.31-17.61Z"/>
					<path class="cls-4" d="M116.35,172.76c-1.3-3.99,3.71-7.26,4-7.48,0,0,.01,0,.01,0l41.18-23.07-42.64,19.5s-8.6,3.53-9.75-2.02c-.92-4.42,9.56-11.35,10.58-12.04-14.95,9.08-20.59,19.17-22.54,23.99-.73,1.8-.95,2.86-.95,2.86,1.49,.7,3.01,1.28,4.56,1.74,8.89,2.63,18.66,1.39,28.39-2.03-.65,.16-11.55,2.55-12.84-1.44Z"/>
				</g>
				<g>
					<path class="cls-3" d="M129.73,72.04s-30.42,33.56-38.58,65.56c0,0,0,0,0,.03-2.54,9.99-2.92,19.83,.48,28.46,.59,1.5,1.3,2.97,2.13,4.39,0,0,1.04-.31,2.77-1.2,4.63-2.37,14.19-8.87,21.91-24.57,.01-.02,.02-.04,.03-.06,0-.02,.02-.03,.02-.03,7.23-14.73,12.83-37.54,11.25-72.58Z"/>
					<path class="cls-4" d="M93.71,150.29c4.09,.94,6.91-4.34,7.1-4.65,0,0,0-.01,0-.01l19.34-43.05-15.66,44.19s-2.76,8.88,2.87,9.53c4.49,.52,10.46-10.53,11.06-11.6-7.72,15.7-17.28,22.2-21.91,24.57-1.73,.89-2.77,1.2-2.77,1.2-.83-1.42-1.54-2.89-2.13-4.39-3.41-8.62-3.03-18.47-.48-28.46-.1,.66-1.52,11.73,2.57,12.66Z"/>
				</g>
			</g>
			<g>
				<g>
					<path class="cls-3" d="M247.04,108.1s-38.96,23.1-71.95,24.7c0,0,0,0-.03,0-10.3,.49-20.02-1.1-27.79-6.16-1.35-.88-2.65-1.87-3.88-2.97,0,0,.52-.96,1.73-2.47,3.25-4.07,11.53-12.13,28.45-16.56,.03,0,.05-.02,.06-.02,.02,0,.04,0,.04,0,15.88-4.14,39.34-5.07,73.37,3.48Z"/>
					<path class="cls-4" d="M163.16,127.75c-.11-4.2,5.63-5.9,5.97-6.02,0,0,.02,0,.02,0l46.05-10.35-46.43,6.51s-9.25,.93-8.77-4.72c.38-4.5,12.4-8.14,13.57-8.52-16.92,4.43-25.2,12.49-28.45,16.56-1.22,1.52-1.73,2.47-1.73,2.47,1.23,1.1,2.52,2.09,3.88,2.97,7.77,5.06,17.49,6.66,27.79,6.16-.67-.03-11.8-.85-11.89-5.05Z"/>
				</g>
				<g>
					<path class="cls-3" d="M204.75,35.04s-38.73,23.47-55.7,51.81c0,0,0,0-.02,.03-5.29,8.85-8.46,18.17-7.66,27.41,.14,1.61,.4,3.22,.79,4.82,0,0,1.09,0,3-.36,5.12-.95,16.13-4.45,28.01-17.29,.02-.02,.04-.03,.04-.05,.02-.02,.02-.03,.02-.03,11.14-12.05,23.01-32.31,31.51-66.35Z"/>
					<path class="cls-4" d="M147.88,99.76c3.65,2.07,7.86-2.18,8.13-2.43,0,0,0-.01,0-.01l30.83-35.74-27.63,37.88s-5.18,7.72,.03,9.96c4.15,1.78,13.03-7.1,13.91-7.95-11.88,12.84-22.9,16.34-28.01,17.29-1.91,.36-3,.36-3,.36-.39-1.6-.65-3.21-.79-4.82-.8-9.24,2.37-18.56,7.66-27.41-.29,.61-4.81,10.8-1.15,12.87Z"/>
				</g>
			</g>
			<g>
				<g>
					<path class="cls-3" d="M317.7,103.64s-44.07,10.43-76.04,2.12c0,0,0,0-.03-.01-9.98-2.6-18.78-7.02-24.69-14.17-1.03-1.24-1.97-2.57-2.82-3.99,0,0,.78-.76,2.39-1.84,4.32-2.91,14.62-8.14,32.1-7.32,.03,0,.05,0,.06,0,.02,0,.04,0,.04,0,16.39,.79,39.06,6.89,68.99,25.21Z"/>
					<path class="cls-4" d="M231.78,97.38c1.15-4.04,7.14-3.95,7.5-3.97,0,0,.02,0,.02,0l47.04,3.86-46.26-7.63s-9.11-1.87-6.96-7.12c1.71-4.18,14.27-4.07,15.5-4.09-17.47-.82-27.78,4.41-32.1,7.32-1.61,1.08-2.39,1.84-2.39,1.84,.85,1.41,1.78,2.75,2.82,3.99,5.91,7.15,14.71,11.57,24.69,14.17-.63-.23-11-4.33-9.85-8.37Z"/>
				</g>
				<g>
					<path class="cls-3" d="M299.11,21.29s-43.97,10.85-68.61,32.85c0,0,0,0-.02,.02-7.69,6.87-13.5,14.82-15.49,23.88-.35,1.57-.58,3.19-.68,4.83,0,0,1.04,.32,2.97,.55,5.17,.62,16.73,.56,31.9-8.15,.03-.01,.04-.02,.06-.03,.02-.01,.03-.02,.03-.02,14.22-8.19,31.6-23.98,49.86-53.93Z"/>
					<path class="cls-4" d="M225.54,66.1c2.87,3.07,8.15,.26,8.48,.11,0,0,.01,0,.01,0l40.09-24.92-37.67,27.92s-7.25,5.82-2.94,9.51c3.43,2.94,14.55-2.89,15.65-3.44-15.17,8.71-26.73,8.77-31.9,8.15-1.93-.23-2.97-.55-2.97-.55,.11-1.64,.33-3.26,.68-4.83,1.99-9.06,7.8-17.01,15.49-23.88-.45,.49-7.81,8.88-4.94,11.94Z"/>
				</g>
			</g>
			<g>
				<g>
					<path class="cls-3" d="M369.2,175.13s-38.53-23.81-55.25-52.29c0,0,0,0-.01-.03-5.21-8.9-8.31-18.25-7.43-27.48,.15-1.61,.43-3.21,.83-4.81,0,0,1.09,.01,2.99,.39,5.11,1,16.09,4.59,27.86,17.53,.02,.02,.04,.03,.04,.05,.01,.02,.02,.03,.02,.03,11.03,12.15,22.73,32.51,30.93,66.62Z"/>
					<path class="cls-4" d="M312.9,109.93c3.67-2.04,7.84,2.25,8.11,2.5,0,0,0,.01,0,.01l30.52,36-27.3-38.12s-5.12-7.76,.11-9.96c4.17-1.75,12.97,7.21,13.85,8.08-11.77-12.94-22.75-16.54-27.86-17.53-1.91-.37-2.99-.39-2.99-.39-.4,1.6-.68,3.2-.83,4.81-.88,9.23,2.21,18.58,7.43,27.48-.28-.61-4.71-10.85-1.04-12.88Z"/>
				</g>
				<g>
					<path class="cls-3" d="M414.32,103.78s-38.76-23.43-71.73-25.32c0,0,0,0-.03,0-10.29-.58-20.03,.93-27.84,5.92-1.36,.87-2.66,1.85-3.9,2.93,0,0,.51,.96,1.71,2.49,3.22,4.09,11.42,12.23,28.31,16.8,.03,0,.05,.02,.06,.02,.02,0,.04,0,.04,0,15.84,4.28,39.3,5.41,73.39-2.85Z"/>
					<path class="cls-4" d="M330.62,83.41c-.14,4.2,5.58,5.95,5.92,6.08,0,0,.02,0,.02,0l45.96,10.75-46.37-6.91s-9.24-1.01-8.81,4.64c.34,4.5,12.33,8.25,13.5,8.64-16.88-4.58-25.09-12.71-28.31-16.8-1.2-1.53-1.71-2.49-1.71-2.49,1.24-1.09,2.54-2.07,3.9-2.93,7.81-4.99,17.54-6.5,27.84-5.92-.67,.03-11.8,.75-11.94,4.95Z"/>
				</g>
			</g>
			<g>
				<g>
					<path class="cls-3" d="M404.19,223.68s-29.88-34.04-37.53-66.17c0,0,0,0,0-.03-2.38-10.03-2.6-19.88,.94-28.45,.61-1.49,1.35-2.95,2.2-4.36,0,0,1.03,.33,2.75,1.25,4.59,2.45,14.04,9.1,21.51,24.92,.01,.02,.02,.04,.03,.06,0,.02,.01,.03,.01,.03,6.99,14.85,12.23,37.74,10.08,72.75Z"/>
					<path class="cls-4" d="M369.44,144.86c4.11-.88,6.84,4.45,7.02,4.76,0,0,0,.01,0,.01l18.65,43.36-14.95-44.44s-2.62-8.92,3.02-9.49c4.5-.45,10.29,10.69,10.88,11.77-7.47-15.82-16.92-22.47-21.51-24.92-1.71-.92-2.75-1.25-2.75-1.25-.85,1.41-1.59,2.86-2.2,4.36-3.54,8.57-3.32,18.41-.94,28.45-.09-.66-1.33-11.75,2.77-12.62Z"/>
				</g>
				<g>
					<path class="cls-3" d="M468.22,168.66s-30.2-33.75-61.18-45.2c0,0,0,0-.03,0-9.67-3.57-19.42-4.97-28.35-2.49-1.55,.43-3.09,.99-4.59,1.66,0,0,.2,1.07,.91,2.88,1.88,4.86,7.35,15.04,22.15,24.35,.02,.02,.04,.03,.05,.04,.02,.01,.03,.02,.03,.02,13.9,8.73,35.99,16.67,71.01,18.75Z"/>
					<path class="cls-4" d="M394.14,124.69c-1.37,3.97,3.59,7.32,3.88,7.54,0,0,.01,0,.01,0l40.8,23.72-42.32-20.18s-8.54-3.67-9.78,1.86c-.99,4.41,9.38,11.5,10.38,12.21-14.81-9.32-20.28-19.5-22.15-24.35-.7-1.81-.91-2.88-.91-2.88,1.5-.68,3.03-1.23,4.59-1.66,8.93-2.49,18.68-1.08,28.35,2.49-.65-.17-11.51-2.74-12.86,1.24Z"/>
				</g>
			</g>
			<g>
				<g>
					<path class="cls-3" d="M412.47,297.71s-13.15-43.34-6.85-75.76c0,0,0,0,0-.03,1.97-10.12,5.84-19.18,12.6-25.52,1.17-1.11,2.45-2.13,3.8-3.06,0,0,.81,.73,1.99,2.27,3.17,4.13,9.03,14.09,9.3,31.58,0,.03,0,.05,0,.06,0,.02,0,.04,0,.04,.24,16.41-4.45,39.42-20.86,70.42Z"/>
					<path class="cls-4" d="M413.36,211.57c4.1,.9,4.39,6.88,4.43,7.24,0,0,0,.02,0,.02l-.92,47.19,4.74-46.64s1.3-9.21,6.67-7.39c4.28,1.44,4.96,13.99,5.04,15.21-.27-17.49-6.13-27.45-9.3-31.58-1.18-1.54-1.99-2.27-1.99-2.27-1.36,.93-2.63,1.95-3.8,3.06-6.77,6.34-10.63,15.4-12.6,25.52,.19-.64,3.64-11.25,7.74-10.35Z"/>
				</g>
				<g>
					<path class="cls-3" d="M493.5,274.03s-13.57-43.21-37.06-66.44c0,0,0,0-.03-.02-7.34-7.25-15.63-12.55-24.8-13.97-1.59-.25-3.22-.38-4.87-.38,0,0-.25,1.06-.36,3-.3,5.2,.48,16.73,10.12,31.33,.01,.02,.02,.04,.03,.05,.01,.02,.02,.03,.02,.03,9.06,13.69,25.9,30.05,56.93,46.4Z"/>
					<path class="cls-4" d="M444.19,203.39c-2.88,3.05,.25,8.15,.42,8.47,0,0,0,.01,0,.01l27.36,38.46-30.21-35.85s-6.26-6.87-9.68-2.34c-2.72,3.61,3.79,14.35,4.41,15.41-9.64-14.6-10.41-26.13-10.12-31.33,.11-1.94,.36-3,.36-3,1.65,0,3.27,.13,4.87,.38,9.16,1.42,17.46,6.73,24.8,13.97-.52-.42-9.35-7.24-12.22-4.18Z"/>
				</g>
			</g>
			<g>
				<g>
					<path class="cls-3" d="M369.5,365.57s15.95-42.39,40.69-64.27c0,0,0,0,.03-.02,7.73-6.83,16.31-11.66,25.54-12.57,1.61-.16,3.24-.2,4.88-.11,0,0,.2,1.07,.19,3.01,0,5.21-1.41,16.68-11.85,30.72-.01,.02-.03,.04-.04,.05-.01,.02-.02,.03-.02,.03-9.8,13.16-27.53,28.56-59.43,43.17Z"/>
					<path class="cls-4" d="M422.66,297.78c2.71,3.21-.7,8.13-.89,8.44,0,0,0,.01,0,.01l-29.46,36.87,32.16-34.12s6.63-6.51,9.79-1.8c2.52,3.75-4.59,14.11-5.26,15.14,10.44-14.04,11.85-25.51,11.85-30.72,0-1.94-.19-3.01-.19-3.01-1.64-.09-3.27-.05-4.88,.11-9.23,.91-17.81,5.74-25.54,12.57,.54-.39,9.74-6.71,12.44-3.5Z"/>
				</g>
				<g>
					<path class="cls-3" d="M448.19,396.12s15.54-42.54,11.05-75.26c0,0,0,0,0-.03-1.41-10.21-4.76-19.47-11.16-26.18-1.11-1.17-2.32-2.26-3.63-3.26,0,0-.84,.68-2.11,2.16-3.4,3.94-9.8,13.56-11.05,31.01,0,.03,0,.05,0,.06,0,.02,0,.04,0,.04-1.15,16.37,2.25,39.6,16.91,71.48Z"/>
					<path class="cls-4" d="M452.09,310.06c-4.15,.67-4.77,6.62-4.82,6.98,0,0,0,.02,0,.02l-1.71,47.17-2.14-46.84s-.78-9.26-6.25-7.75c-4.35,1.2-5.73,13.69-5.88,14.91,1.24-17.45,7.65-27.07,11.05-31.01,1.27-1.47,2.11-2.16,2.11-2.16,1.3,1.01,2.52,2.1,3.63,3.26,6.4,6.71,9.76,15.97,11.16,26.18-.16-.65-3.01-11.44-7.15-10.76Z"/>
				</g>
			</g>
			<g>
				<g>
					<path class="cls-3" d="M302.9,406.65s34.61-29.21,66.88-36.24c0,0,0,0,.03,0,10.08-2.19,19.92-2.22,28.42,1.49,1.48,.64,2.92,1.41,4.31,2.28,0,0-.35,1.03-1.3,2.72-2.54,4.55-9.37,13.87-25.33,21.03-.02,.01-.04,.02-.06,.03-.02,0-.03,.01-.03,.01-14.98,6.7-37.97,11.5-72.93,8.68Z"/>
					<path class="cls-4" d="M382.38,373.42c.8,4.12-4.58,6.75-4.9,6.93,0,0-.01,0-.01,0l-43.71,17.81,44.72-14.09s8.97-2.45,9.43,3.21c.37,4.5-10.89,10.08-11.98,10.65,15.96-7.16,22.79-16.48,25.33-21.03,.95-1.7,1.3-2.72,1.3-2.72-1.39-.88-2.83-1.64-4.31-2.28-8.5-3.71-18.35-3.68-28.42-1.49,.67-.08,11.77-1.11,12.56,3.02Z"/>
				</g>
				<g>
					<path class="cls-3" d="M356.68,471.73s34.33-29.55,46.38-60.3c0,0,0,0,0-.03,3.76-9.6,5.35-19.32,3.03-28.3-.4-1.56-.93-3.11-1.57-4.62,0,0-1.07,.18-2.89,.85-4.89,1.78-15.17,7.05-24.78,21.68-.02,.02-.03,.04-.04,.05-.01,.02-.02,.03-.02,.03-8.99,13.73-17.36,35.67-20.12,70.64Z"/>
					<path class="cls-4" d="M402.07,398.51c-3.95-1.44-7.39,3.45-7.62,3.74,0,0,0,.01,0,.01l-24.51,40.34,20.99-41.92s3.84-8.47-1.67-9.82c-4.39-1.07-11.68,9.16-12.41,10.14,9.6-14.62,19.88-19.9,24.78-21.68,1.82-.67,2.89-.85,2.89-.85,.65,1.51,1.17,3.06,1.57,4.62,2.32,8.98,.72,18.7-3.03,28.3,.18-.65,2.96-11.45-.99-12.88Z"/>
				</g>
			</g>
			<g>
				<g>
					<path class="cls-3" d="M234.87,407.24s44.71-7.25,76,3.33c0,0,0,0,.03,.01,9.77,3.31,18.23,8.35,23.61,15.9,.94,1.31,1.78,2.71,2.52,4.18,0,0-.83,.7-2.52,1.67-4.51,2.6-15.17,7.07-32.54,5.01-.03,0-.05,0-.06,0-.02,0-.04,0-.04,0-16.29-1.96-38.47-9.67-67.01-30.07Z"/>
					<path class="cls-4" d="M320.12,419.63c-1.44,3.95-7.4,3.43-7.76,3.42,0,0-.01,0-.01,0l-46.64-7.21,45.59,10.92s8.95,2.52,6.44,7.6c-2,4.05-14.52,3.04-15.75,2.97,17.37,2.07,28.02-2.41,32.54-5.01,1.69-.97,2.52-1.67,2.52-1.67-.74-1.47-1.58-2.87-2.52-4.18-5.38-7.55-13.84-12.59-23.61-15.9,.61,.28,10.67,5.11,9.22,9.05Z"/>
				</g>
				<g>
					<path class="cls-3" d="M247.52,490.71s44.64-7.68,70.79-27.86c0,0,0,0,.02-.02,8.16-6.3,14.52-13.82,17.16-22.71,.46-1.55,.8-3.14,1.03-4.77,0,0-1.01-.39-2.92-.76-5.11-.99-16.64-1.76-32.4,5.85-.03,0-.05,.02-.06,.03-.02,0-.03,.02-.03,.02-14.77,7.15-33.24,21.65-53.59,50.23Z"/>
					<path class="cls-4" d="M324.11,451.28c-2.64-3.27-8.11-.84-8.45-.71,0,0-.01,0-.01,0l-41.76,21.99,39.57-25.15s7.65-5.29,3.61-9.28c-3.21-3.18-14.72,1.84-15.86,2.32,15.75-7.6,27.29-6.83,32.4-5.85,1.91,.37,2.92,.76,2.92,.76-.22,1.63-.57,3.23-1.03,4.77-2.63,8.89-9,16.41-17.16,22.71,.49-.46,8.42-8.3,5.78-11.56Z"/>
				</g>
			</g>
			<g>
				<g>
					<path class="cls-3" d="M172.02,385.52s43.59,12.3,67.49,35.09c0,0,0,0,.02,.02,7.46,7.12,13,15.26,14.69,24.38,.3,1.59,.47,3.21,.52,4.85,0,0-1.05,.29-2.98,.45-5.19,.45-16.73,0-31.61-9.2-.02-.01-.04-.02-.06-.03-.02-.01-.03-.02-.03-.02-13.95-8.65-30.79-25.01-48.05-55.55Z"/>
					<path class="cls-4" d="M244.08,432.74c-2.97,2.97-8.16-.01-8.48-.17,0,0-.01,0-.01,0l-39.24-26.23,36.72,29.15s7.05,6.06,2.63,9.6c-3.52,2.83-14.45-3.37-15.53-3.96,14.88,9.21,26.42,9.64,31.61,9.2,1.94-.16,2.98-.45,2.98-.45-.05-1.65-.23-3.27-.52-4.85-1.69-9.12-7.23-17.26-14.69-24.38,.44,.51,7.51,9.13,4.54,12.1Z"/>
				</g>
				<g>
					<path class="cls-3" d="M148.26,466.53s43.71,11.88,75.93,4.63c0,0,0,0,.03-.01,10.06-2.27,19-6.4,25.14-13.35,1.07-1.21,2.05-2.51,2.95-3.89,0,0-.75-.78-2.33-1.92-4.22-3.05-14.35-8.62-31.84-8.38-.03,0-.05,0-.06,0-.02,0-.04,0-.04,0-16.41,.24-39.27,5.6-69.78,22.91Z"/>
					<path class="cls-4" d="M234.33,463.11c-1.02-4.08-7-4.19-7.36-4.21,0,0-.01,0-.01,0l-47.14,2.3,46.49-6.1s9.16-1.57,7.19-6.89c-1.57-4.24-14.13-4.54-15.36-4.6,17.49-.24,27.62,5.32,31.84,8.38,1.58,1.14,2.33,1.92,2.33,1.92-.89,1.38-1.87,2.69-2.95,3.89-6.14,6.95-15.08,11.08-25.14,13.35,.64-.21,11.14-3.97,10.12-8.04Z"/>
				</g>
			</g>
			<g>
				<g>
					<path class="cls-3" d="M126.76,337.57s34.44,29.41,46.61,60.12c0,0,0,0,0,.03,3.79,9.59,5.42,19.3,3.14,28.29-.39,1.56-.91,3.11-1.56,4.63,0,0-1.07-.18-2.9-.84-4.9-1.76-15.2-7-24.86-21.58-.02-.02-.03-.04-.04-.05-.01-.02-.02-.03-.02-.03-9.05-13.69-17.5-35.6-20.4-70.56Z"/>
					<path class="cls-4" d="M172.44,410.61c-3.94,1.46-7.41-3.42-7.63-3.71,0,0,0-.01,0-.01l-24.66-40.24,21.16,41.84s3.87,8.45-1.63,9.82c-4.38,1.09-11.71-9.11-12.45-10.1,9.66,14.59,19.96,19.82,24.86,21.58,1.83,.66,2.9,.84,2.9,.84,.64-1.52,1.16-3.06,1.56-4.63,2.28-8.99,.65-18.7-3.14-28.29,.18,.65,3,11.44-.94,12.89Z"/>
				</g>
				<g>
					<path class="cls-3" d="M71.27,401.2s34.72,29.08,67.03,35.98c0,0,0,0,.03,0,10.08,2.15,19.93,2.14,28.42-1.6,1.48-.65,2.92-1.42,4.3-2.3,0,0-.35-1.03-1.31-2.72-2.55-4.54-9.42-13.83-25.41-20.93-.02-.01-.04-.02-.06-.03-.02,0-.03-.01-.03-.01-15.01-6.65-38.01-11.35-72.97-8.39Z"/>
					<path class="cls-4" d="M150.88,434.11c.78-4.13-4.61-6.73-4.92-6.91,0,0-.01,0-.01,0l-43.78-17.64,44.77,13.91s8.98,2.41,9.41-3.24c.35-4.5-10.93-10.04-12.02-10.6,15.99,7.1,22.86,16.39,25.41,20.93,.96,1.69,1.31,2.72,1.31,2.72-1.39,.88-2.83,1.65-4.3,2.3-8.48,3.74-18.33,3.75-28.42,1.6,.67,.07,11.78,1.06,12.55-3.07Z"/>
				</g>
			</g>
			<g>
				<g>
					<path class="cls-3" d="M98.31,286.18s24.61,38.02,27.5,70.93c0,0,0,0,0,.03,.9,10.27-.31,20.05-5.07,28.01-.82,1.39-1.76,2.72-2.81,3.99,0,0-.98-.48-2.54-1.63-4.19-3.09-12.57-11.04-17.66-27.78-.01-.03-.02-.05-.02-.06,0-.02,0-.03,0-.03-4.76-15.71-6.61-39.11,.6-73.45Z"/>
					<path class="cls-4" d="M121.23,369.22c-4.19,.27-6.12-5.4-6.25-5.73,0,0,0-.02,0-.02l-12.15-45.61,8.33,46.14s1.29,9.21-4.37,8.95c-4.51-.21-8.62-12.08-9.05-13.23,5.09,16.74,13.47,24.69,17.66,27.78,1.56,1.16,2.54,1.63,2.54,1.63,1.05-1.27,1.99-2.6,2.81-3.99,4.75-7.96,5.96-17.74,5.07-28.01,0,.67-.39,11.82-4.58,12.08Z"/>
				</g>
				<g>
					<path class="cls-3" d="M29.34,327.63s24.98,37.78,53.96,53.62c0,0,0,0,.03,.01,9.05,4.94,18.49,7.74,27.69,6.58,1.6-.2,3.2-.53,4.78-.98,0,0-.05-1.08-.48-2.98-1.15-5.08-5.08-15.94-18.38-27.31-.02-.02-.03-.03-.05-.04-.02-.01-.03-.02-.03-.02-12.48-10.65-33.19-21.73-67.53-28.88Z"/>
					<path class="cls-4" d="M96.23,381.9c1.93-3.73-2.49-7.77-2.75-8.03,0,0-.01,0-.01,0l-36.92-29.4,38.94,26.12s7.92,4.87,9.95-.42c1.62-4.22-7.61-12.74-8.5-13.59,13.29,11.37,17.22,22.24,18.38,27.31,.43,1.89,.48,2.98,.48,2.98-1.58,.45-3.18,.78-4.78,.98-9.2,1.16-18.64-1.64-27.69-6.58,.62,.26,10.99,4.38,12.9,.64Z"/>
				</g>
			</g>
			<g>
				<g>
					<path class="cls-3" d="M95.58,218.53s11.15,43.9,3.36,76c0,0,0,0-.01,.03-2.44,10.02-6.71,18.89-13.76,24.91-1.22,1.05-2.54,2.01-3.94,2.88,0,0-.77-.76-1.88-2.36-2.98-4.27-8.38-14.49-7.84-31.97,0-.03,0-.05,0-.06,0-.02,0-.04,0-.04,.52-16.4,6.25-39.17,24.07-69.39Z"/>
					<path class="cls-4" d="M90.73,304.54c-4.06-1.08-4.07-7.07-4.09-7.43,0,0,0-.02,0-.02l3.09-47.1-6.87,46.38s-1.72,9.14-7,7.08c-4.21-1.64-4.31-14.2-4.34-15.43-.53,17.49,4.86,27.7,7.84,31.97,1.11,1.59,1.88,2.36,1.88,2.36,1.4-.87,2.72-1.83,3.94-2.88,7.05-6.02,11.33-14.9,13.76-24.91-.22,.63-4.15,11.07-8.2,9.98Z"/>
				</g>
				<g>
					<path class="cls-3" d="M18.5,231.37s11.57,43.79,33.97,68.07c0,0,0,0,.03,.02,6.99,7.57,15.04,13.25,24.13,15.1,1.58,.32,3.2,.52,4.84,.6,0,0,.3-1.04,.5-2.98,.53-5.18,.29-16.73-8.67-31.76-.01-.03-.02-.04-.03-.06-.01-.02-.02-.03-.02-.03-8.42-14.09-24.49-31.21-54.74-48.97Z"/>
					<path class="cls-4" d="M64.51,304.2c3.02-2.92,.13-8.16-.03-8.48,0,0,0-.01,0-.01l-25.57-39.67,28.53,37.2s5.94,7.15,9.56,2.79c2.88-3.48-3.13-14.51-3.7-15.6,8.96,15.03,9.2,26.58,8.67,31.76-.2,1.93-.5,2.98-.5,2.98-1.64-.08-3.26-.28-4.84-.6-9.09-1.84-17.13-7.52-24.13-15.1,.5,.45,9.01,7.66,12.02,4.74Z"/>
				</g>
			</g>
			<g>
				<g>
					<path class="cls-3" d="M121.25,145.58s-5.34,44.98-24.12,72.15c0,0,0,0-.02,.03-5.87,8.48-13.04,15.23-21.78,18.32-1.52,.54-3.09,.97-4.71,1.28,0,0-.45-.99-.91-2.88-1.25-5.05-2.62-16.53,4.15-32.66,0-.03,.02-.05,.02-.06,0-.02,.02-.03,.02-.03,6.37-15.13,19.89-34.32,47.36-56.14Z"/>
					<path class="cls-4" d="M85.87,224.12c-3.4-2.47-1.26-8.06-1.15-8.4,0,0,0-.01,0-.01l19.77-42.86-23.05,40.83s-4.88,7.91-9.08,4.09c-3.34-3.04,1.07-14.8,1.48-15.96-6.77,16.13-5.4,27.61-4.15,32.66,.46,1.89,.91,2.88,.91,2.88,1.62-.31,3.19-.73,4.71-1.28,8.74-3.09,15.91-9.84,21.78-18.32-.43,.51-7.85,8.85-11.24,6.37Z"/>
				</g>
				<g>
					<path class="cls-3" d="M43.69,142.63s-4.9,45.03,7.29,75.72c0,0,0,0,.02,.03,3.81,9.58,9.29,17.77,17.11,22.75,1.36,.87,2.8,1.64,4.3,2.3,0,0,.66-.87,1.53-2.6,2.36-4.64,6.27-15.52,3.3-32.75,0-.03,0-.05,0-.06,0-.02,0-.04,0-.04-2.8-16.17-11.67-37.91-33.54-65.35Z"/>
					<path class="cls-4" d="M60.52,227.12c3.87-1.64,3.04-7.57,3.01-7.93,0,0,0-.01,0-.01l-9.64-46.2,13.29,44.96s2.98,8.81,7.92,6.03c3.94-2.21,2.28-14.66,2.14-15.88,2.97,17.24-.94,28.11-3.3,32.75-.88,1.73-1.53,2.6-1.53,2.6-1.51-.66-2.94-1.43-4.3-2.3-7.82-4.98-13.3-13.17-17.11-22.75,.31,.6,5.66,10.38,9.52,8.74Z"/>
				</g>
			</g>
		</g>
		<path class="cls-5" d="M101.72,107.91s31.02,19.17,44.15,58.5c0,0,9.41,2.56,9.82-6.48,0,0-13.9-43.12-46.41-64.47,0,0-8.04,.08-7.56,12.45Z"/>
		<path class="cls-5" d="M374.74,85s-14.02,29.65-55.49,46.28c0,0,1.6,10.03,8.78,10.03,0,0,36.93-18.15,58.09-50.79,0,0-2.11-7.12-11.38-5.52Z"/>
		<path class="cls-5" d="M453.84,205.15s-10.34,20.08-49.93,26.66c0,0-3.22,6.29,.17,14.97,0,0,48.1-14.37,57.57-32.86,0,0,.81-5.66-7.81-8.78Z"/>
		<path class="cls-5" d="M397.7,422.67s-20.15-9.09-34.06-51.55c0,0-7.49-2.95-13.01,2.86,0,0,8.78,36.77,39.98,60,0,0,8.08-1.96,7.09-11.31Z"/>
		<path class="cls-5" d="M132.58,434.94s1.01-22.08,35.35-50.68c0,0-.03-8.05-7.46-11.03,0,0-30.94,21.73-41.01,59.3,0,0,4.81,6.79,13.13,2.41Z"/>
		<path class="cls-5" d="M45.91,293.3s11.11-16.43,55.79-17.02c0,0,4.96-6.45,1.06-13.44,0,0-34.04-2.52-65.53,20.32,0,0-.54,8.3,8.68,10.14Z"/>
		<g>
			<path class="cls-12" d="M261.46,78.63c-.13,.03-.26,.06-.39,.09-40.17,9.36-53.22,96.33-100.75,115.16-47.67,18.9-86.51,4.94-86.51,4.94l-.25-42.49s94.64,20.44,117.06-32.78c22.42-53.21,65.89-52.68,65.89-52.68l1.12,1.76,3.51,5.49,.32,.51Z"/>
			<path class="cls-9" d="M261.8,72.05l-.66,6.08-.07,.6c-40.17,9.36-53.22,96.33-100.75,115.16-47.67,18.9-86.51,4.94-86.51,4.94l-.25-42.49c1.85,40.56,50.18,32.44,79.12,24.84,41.71-10.94,67.12-76.83,77.9-92.37,7.75-11.17,20.5-14.95,27.05-16.18,2.56-.49,4.18-.59,4.18-.59Z"/>
			<path class="cls-12" d="M439.86,190.14s-37.65,16.89-86.64,1.7c-48.99-15.18-68.64-101.42-109.67-107.16l3.86-7.21,.49-.92s43.3-3.86,69.73,47.49c26.43,51.34,119.23,23.7,119.23,23.7l3.01,42.39Z"/>
			<path class="cls-9" d="M439.86,190.14s-37.65,16.89-86.64,1.7c-48.99-15.18-68.64-101.42-109.67-107.16l3.86-7.21c6.87,.7,22.81,3.89,33.85,18.32,14.43,18.88,44.64,75.38,76.73,83.99,41.08,11.02,77.5,6.43,78.87-32.04l3.01,42.39Z"/>
			<g>
				<g>
					<g>
						<path class="cls-9" d="M328.38,76.2s-2.23,18.54-21.54,18.66c-14.07,.09-51.85-17.81-51.85-17.81l3.99,5.79s29.15,28.79,57.88,29.95c28.73,1.15,40.53-30.9,11.52-36.58Z"/>
						<path class="cls-12" d="M258.98,82.84s67.77,51.55,80.99,11.69c11.35-34.2-84.98-17.48-84.98-17.48l-8.34-12.1s94.8-58.35,107.87,7.91c8.27,41.94-53.23,64.62-95.55,9.98Z"/>
					</g>
					<g>
						<path class="cls-9" d="M178.79,73.24s2.03,18.56,21.34,18.89c14.07,.24,52.04-17.25,52.04-17.25l-4.05,5.74s-29.46,28.48-58.2,29.32c-28.74,.84-40.19-31.34-11.12-36.7Z"/>
						<path class="cls-12" d="M248.11,80.62s-68.32,50.81-81.12,10.81c-10.98-34.32,85.17-16.55,85.17-16.55l8.47-12.01s-94.16-59.37-107.95,6.74c-8.73,41.85,52.53,65.19,95.43,11.01Z"/>
					</g>
				</g>
				<g>
					<path class="cls-12" d="M266.99,74.4c-.21,.76-.47,1.49-.78,2.19-3.2,7.38-11.43,11.47-19.41,9.27-8.74-2.41-13.87-11.45-11.46-20.19,2.15-7.78,9.54-12.7,17.29-11.99h0c.96,.08,1.93,.26,2.9,.52,8.74,2.41,13.87,11.45,11.46,20.2Z"/>
					<path class="cls-9" d="M266.21,76.6c-3.2,7.38-11.43,11.47-19.41,9.27-8.74-2.41-13.87-11.45-11.46-20.19,2.15-7.78,9.54-12.7,17.29-11.99-.34,.14-9.02,2.52-7.68,13.16,1.48,11.76,17.21,14.58,21.26,9.75Z"/>
				</g>
			</g>
		</g>
		<g>
			<path class="cls-6" d="M102.22,330.67c3.86,4.82,3.09,11.85-1.73,15.71-4.82,3.86-11.85,3.09-15.71-1.73-3.86-4.82-3.09-11.85,1.73-15.71,4.82-3.86,11.85-3.09,15.71,1.73Z"/>
			<path class="cls-2" d="M100.32,329.72c2.94,3.66,2.35,9.02-1.32,11.95-3.66,2.94-9.02,2.35-11.95-1.32-2.94-3.66-2.35-9.02,1.32-11.95,3.66-2.94,9.02-2.35,11.95,1.32Z"/>
		</g>
		<g>
			<path class="cls-6" d="M270.52,431.64c3.86,4.82,3.09,11.85-1.73,15.71-4.82,3.86-11.85,3.09-15.71-1.73-3.86-4.82-3.09-11.85,1.73-15.71,4.82-3.86,11.85-3.09,15.71,1.73Z"/>
			<path class="cls-2" d="M268.62,430.7c2.94,3.66,2.35,9.02-1.32,11.95-3.66,2.94-9.02,2.35-11.95-1.32-2.94-3.66-2.35-9.02,1.32-11.95,3.66-2.94,9.02-2.35,11.95,1.32Z"/>
		</g>
		<g>
			<path class="cls-6" d="M435.06,314.07c3.86,4.82,3.09,11.85-1.73,15.71-4.82,3.86-11.85,3.09-15.71-1.73-3.86-4.82-3.09-11.85,1.73-15.71,4.82-3.86,11.85-3.09,15.71,1.73Z"/>
			<path class="cls-2" d="M433.16,313.13c2.94,3.66,2.35,9.02-1.32,11.95-3.67,2.94-9.02,2.35-11.95-1.32-2.94-3.66-2.35-9.02,1.32-11.95,3.66-2.94,9.02-2.35,11.95,1.32Z"/>
		</g>
	</g>
</svg>
